<svg width="325" height="196" viewBox="0 0 325 196" fill="none" xmlns="http://www.w3.org/2000/svg">
<g filter="url(#filter0_b_7371_105948)">
<rect x="0.101562" y="0.0473633" width="300.351" height="195.951" rx="11.9128" fill="url(#paint0_linear_7371_105948)" fill-opacity="0.9"/>
</g>
<path d="M281.815 0.0473633H12.0112C5.43369 0.0473633 0.101562 5.3795 0.101562 11.957V184.997C0.101562 186.273 1.51911 187.04 2.58733 186.34L282.695 2.99739C284.03 2.12324 283.411 0.0473633 281.815 0.0473633Z" fill="url(#paint1_linear_7371_105948)"/>
<g filter="url(#filter1_i_7371_105948)">
<path d="M210.24 154.949L203.333 159.109C203.028 159.304 202.709 159.387 202.377 159.359C202.044 159.331 201.752 159.22 201.503 159.026C201.253 158.832 201.059 158.59 200.92 158.299C200.782 158.007 200.754 157.681 200.837 157.32L202.668 149.457L196.552 144.174C196.275 143.924 196.101 143.639 196.033 143.32C195.963 143.001 195.983 142.69 196.094 142.385C196.205 142.079 196.372 141.83 196.594 141.636C196.815 141.442 197.121 141.317 197.509 141.261L205.58 140.554L208.7 133.148C208.839 132.816 209.054 132.566 209.346 132.4C209.637 132.233 209.935 132.15 210.24 132.15C210.545 132.15 210.843 132.233 211.135 132.4C211.426 132.566 211.64 132.816 211.779 133.148L214.899 140.554L222.971 141.261C223.359 141.317 223.664 141.442 223.886 141.636C224.108 141.83 224.274 142.079 224.385 142.385C224.496 142.69 224.517 143.001 224.448 143.32C224.378 143.639 224.205 143.924 223.927 144.174L217.812 149.457L219.642 157.32C219.725 157.681 219.698 158.007 219.559 158.299C219.42 158.59 219.226 158.832 218.977 159.026C218.727 159.22 218.436 159.331 218.103 159.359C217.77 159.387 217.451 159.304 217.146 159.109L210.24 154.949Z" fill="white"/>
<path d="M241.088 130.732L229.786 137.54C229.287 137.858 228.765 137.994 228.22 137.949C227.676 137.903 227.199 137.722 226.791 137.404C226.382 137.086 226.065 136.69 225.838 136.214C225.611 135.737 225.565 135.203 225.702 134.613L228.697 121.746L218.689 113.1C218.236 112.691 217.952 112.226 217.84 111.703C217.725 111.182 217.759 110.672 217.941 110.172C218.122 109.673 218.394 109.265 218.757 108.947C219.121 108.629 219.62 108.425 220.255 108.334L233.463 107.177L238.569 95.0587C238.795 94.5141 239.148 94.1056 239.625 93.8333C240.101 93.561 240.588 93.4248 241.088 93.4248C241.587 93.4248 242.075 93.561 242.553 93.8333C243.028 94.1056 243.38 94.5141 243.606 95.0587L248.712 107.177L261.92 108.334C262.555 108.425 263.054 108.629 263.418 108.947C263.781 109.265 264.053 109.673 264.235 110.172C264.416 110.672 264.451 111.182 264.338 111.703C264.224 112.226 263.939 112.691 263.486 113.1L253.478 121.746L256.473 134.613C256.61 135.203 256.564 135.737 256.337 136.214C256.11 136.69 255.793 137.086 255.384 137.404C254.976 137.722 254.499 137.903 253.955 137.949C253.41 137.994 252.888 137.858 252.389 137.54L241.088 130.732Z" fill="white"/>
<path d="M239.247 165.842L232.341 170.002C232.036 170.196 231.717 170.279 231.384 170.252C231.051 170.224 230.76 170.113 230.511 169.919C230.261 169.725 230.067 169.482 229.928 169.192C229.789 168.9 229.762 168.574 229.845 168.213L231.676 160.35L225.56 155.066C225.282 154.817 225.109 154.532 225.041 154.213C224.971 153.894 224.991 153.582 225.102 153.277C225.213 152.972 225.379 152.723 225.601 152.528C225.823 152.334 226.128 152.209 226.517 152.154L234.588 151.447L237.708 144.041C237.847 143.708 238.062 143.459 238.354 143.292C238.645 143.126 238.942 143.043 239.247 143.043C239.553 143.043 239.851 143.126 240.143 143.292C240.433 143.459 240.648 143.708 240.787 144.041L243.907 151.447L251.978 152.154C252.367 152.209 252.672 152.334 252.894 152.528C253.116 152.723 253.282 152.972 253.393 153.277C253.504 153.582 253.525 153.894 253.456 154.213C253.386 154.532 253.213 154.817 252.935 155.066L246.819 160.35L248.65 168.213C248.733 168.574 248.705 168.9 248.567 169.192C248.428 169.482 248.234 169.725 247.984 169.919C247.735 170.113 247.443 170.224 247.111 170.252C246.778 170.279 246.459 170.196 246.154 170.002L239.247 165.842Z" fill="white"/>
</g>
<defs>
<filter id="filter0_b_7371_105948" x="-238.154" y="-238.209" width="776.864" height="672.463" filterUnits="userSpaceOnUse" color-interpolation-filters="sRGB">
<feFlood flood-opacity="0" result="BackgroundImageFix"/>
<feGaussianBlur in="BackgroundImageFix" stdDeviation="119.128"/>
<feComposite in2="SourceAlpha" operator="in" result="effect1_backgroundBlur_7371_105948"/>
<feBlend mode="normal" in="SourceGraphic" in2="effect1_backgroundBlur_7371_105948" result="shape"/>
</filter>
<filter id="filter1_i_7371_105948" x="143.039" y="17.9229" width="181.547" height="177.417" filterUnits="userSpaceOnUse" color-interpolation-filters="sRGB">
<feFlood flood-opacity="0" result="BackgroundImageFix"/>
<feBlend mode="normal" in="SourceGraphic" in2="BackgroundImageFix" result="shape"/>
<feColorMatrix in="SourceAlpha" type="matrix" values="0 0 0 0 0 0 0 0 0 0 0 0 0 0 0 0 0 0 127 0" result="hardAlpha"/>
<feOffset dy="-57.5971"/>
<feGaussianBlur stdDeviation="28.7985"/>
<feComposite in2="hardAlpha" operator="arithmetic" k2="-1" k3="1"/>
<feColorMatrix type="matrix" values="0 0 0 0 0.791667 0 0 0 0 0.791667 0 0 0 0 0.791667 0 0 0 0.25 0"/>
<feBlend mode="normal" in2="shape" result="effect1_innerShadow_7371_105948"/>
</filter>
<linearGradient id="paint0_linear_7371_105948" x1="20.405" y1="129.628" x2="335.606" y2="128.076" gradientUnits="userSpaceOnUse">
<stop stop-color="#8807F7"/>
<stop offset="0.40625" stop-color="#520BB3"/>
<stop offset="1" stop-color="#EA00BE"/>
</linearGradient>
<linearGradient id="paint1_linear_7371_105948" x1="28.2093" y1="126.532" x2="321.094" y2="122.034" gradientUnits="userSpaceOnUse">
<stop stop-color="#8807F7"/>
<stop offset="0.40625" stop-color="#520BB3"/>
<stop offset="1" stop-color="#EA00BE"/>
</linearGradient>
</defs>
</svg>
