<svg width="302" height="196" viewBox="0 0 302 196" fill="none" xmlns="http://www.w3.org/2000/svg">
<g filter="url(#filter0_b_7371_105902)">
<rect x="0.773438" y="0.0473633" width="300.351" height="195.951" rx="11.9128" fill="#2563EB"/>
</g>
<path d="M282.487 0.0473633H12.6831C6.10557 0.0473633 0.773438 5.3795 0.773438 11.957V184.997C0.773438 186.273 2.19099 187.04 3.2592 186.34L283.367 2.99739C284.702 2.12324 284.083 0.0473633 282.487 0.0473633Z" fill="#1C5DEB"/>
<path d="M210.505 147.822L200.969 157.167V130.338H210.505M226.4 141.972L221.409 137.713L216.863 141.909V117.622H226.4M242.294 136.696L232.757 146.232V104.907H242.294M251.226 136.092L245.473 130.338H261.367V146.232L255.677 140.542L232.757 163.271L221.727 153.671L209.711 165.305H200.969L221.536 145.151L232.757 154.624" fill="white"/>
<defs>
<filter id="filter0_b_7371_105902" x="-237.483" y="-238.209" width="776.864" height="672.463" filterUnits="userSpaceOnUse" color-interpolation-filters="sRGB">
<feFlood flood-opacity="0" result="BackgroundImageFix"/>
<feGaussianBlur in="BackgroundImageFix" stdDeviation="119.128"/>
<feComposite in2="SourceAlpha" operator="in" result="effect1_backgroundBlur_7371_105902"/>
<feBlend mode="normal" in="SourceGraphic" in2="effect1_backgroundBlur_7371_105902" result="shape"/>
</filter>
</defs>
</svg>
