<svg width="34" height="35" viewBox="0 0 34 35" fill="none" xmlns="http://www.w3.org/2000/svg">
<g filter="url(#filter0_b_7167_104913)">
<rect y="0.414673" width="34" height="34" rx="17" fill="#F8F0FF"/>
</g>
<g clip-path="url(#clip0_7167_104913)">
<path d="M26.2296 12.1377C25.6301 12.4038 24.9861 12.5836 24.3091 12.6645C25.0001 12.2507 25.5294 11.595 25.7794 10.8146C25.123 11.2045 24.4046 11.4789 23.6555 11.6261C23.0459 10.9762 22.1765 10.5705 21.2147 10.5705C19.3686 10.5705 17.8714 12.0671 17.8714 13.9143C17.8714 14.176 17.9009 14.4314 17.9576 14.6765C15.1785 14.5369 12.7147 13.2057 11.0655 11.1829C10.7775 11.6769 10.6127 12.2513 10.6127 12.8641C10.6127 14.0241 11.2031 15.0475 12.1002 15.647C11.5691 15.6305 11.0497 15.4872 10.5854 15.2289V15.2712C10.5854 16.8914 11.7378 18.2425 13.2676 18.5497C12.9866 18.6267 12.6917 18.6669 12.3866 18.6669C12.1708 18.6669 11.9616 18.6465 11.7571 18.6081C12.1826 19.9361 13.4175 20.9027 14.8803 20.9301C13.7359 21.8272 12.2939 22.3619 10.7278 22.3619C10.458 22.3619 10.1914 22.3458 9.92969 22.3143C11.4097 23.2633 13.167 23.8173 15.0554 23.8173C21.2056 23.8173 24.5692 18.7221 24.5692 14.3035C24.5692 14.1584 24.566 14.0144 24.559 13.871C25.2144 13.397 25.7801 12.8101 26.2296 12.1377Z" fill="#8807F7"/>
</g>
<defs>
<filter id="filter0_b_7167_104913" x="-176.624" y="-176.209" width="387.247" height="387.247" filterUnits="userSpaceOnUse" color-interpolation-filters="sRGB">
<feFlood flood-opacity="0" result="BackgroundImageFix"/>
<feGaussianBlur in="BackgroundImageFix" stdDeviation="88.3118"/>
<feComposite in2="SourceAlpha" operator="in" result="effect1_backgroundBlur_7167_104913"/>
<feBlend mode="normal" in="SourceGraphic" in2="effect1_backgroundBlur_7167_104913" result="shape"/>
</filter>
<clipPath id="clip0_7167_104913">
<rect width="16.5585" height="13.2468" fill="white" transform="translate(9.92969 10.5705)"/>
</clipPath>
</defs>
</svg>
