<svg width="301" height="236" viewBox="0 0 301 236" fill="none" xmlns="http://www.w3.org/2000/svg">
<g filter="url(#filter0_b_7371_104899)">
<rect y="0.0473633" width="300.351" height="195.951" rx="11.9128" fill="#E8356D"/>
</g>
<path d="M281.714 0.0473633H11.9096C5.33213 0.0473633 0 5.3795 0 11.957V184.997C0 186.273 1.41755 187.04 2.48576 186.34L282.593 2.99739C283.929 2.12324 283.31 0.0473633 281.714 0.0473633Z" fill="#E62662"/>
<g opacity="0.6">
<path d="M89.3359 235.045C102.979 232.769 138.506 225.346 148.593 220.399C204.532 193.441 231.253 100.092 231.584 99.1799H276.622C276.286 100.072 270.979 115.352 248.513 158.007C234.625 183.354 214.524 200.25 190.815 214.13C150.095 237.95 89.3359 235.045 89.3359 235.045Z" fill="url(#paint0_linear_7371_104899)"/>
<g opacity="0.1">
<path d="M89.3359 235.045C102.979 232.77 138.506 225.347 148.593 220.4C204.532 193.441 231.253 100.093 231.584 99.1806H276.622C276.286 100.073 270.979 115.352 248.513 158.008C234.625 183.354 214.524 200.25 190.815 214.131C150.095 237.951 89.3359 235.045 89.3359 235.045Z" fill="url(#paint1_linear_7371_104899)"/>
</g>
<path d="M221.117 94.5029L231.581 99.1801C231.294 99.9412 217.353 171.773 174.701 206.253C144.772 230.445 125.617 236.125 60.5938 235.159V222.523C97.2873 222.523 123.464 221.336 147.346 208.876C201.242 180.759 221.035 94.7116 221.117 94.5029Z" fill="url(#paint2_linear_7371_104899)"/>
<path d="M221.117 94.5029H269.657L276.618 99.1801H231.581L221.117 94.5029Z" fill="url(#paint3_linear_7371_104899)"/>
<path d="M258.089 64.4259L289.651 104.336L215.266 104.135L258.089 64.4259Z" fill="url(#paint4_linear_7371_104899)"/>
<g opacity="0.1">
<path d="M258.066 64.4258L289.628 104.336L215.242 104.135L258.066 64.4258Z" fill="url(#paint5_linear_7371_104899)"/>
</g>
<path d="M215.265 104.135L204.445 99.1799L247.269 59.4705L258.088 64.426L215.265 104.135Z" fill="url(#paint6_linear_7371_104899)"/>
</g>
<defs>
<filter id="filter0_b_7371_104899" x="-238.256" y="-238.209" width="776.864" height="672.463" filterUnits="userSpaceOnUse" color-interpolation-filters="sRGB">
<feFlood flood-opacity="0" result="BackgroundImageFix"/>
<feGaussianBlur in="BackgroundImageFix" stdDeviation="119.128"/>
<feComposite in2="SourceAlpha" operator="in" result="effect1_backgroundBlur_7371_104899"/>
<feBlend mode="normal" in="SourceGraphic" in2="effect1_backgroundBlur_7371_104899" result="shape"/>
</filter>
<linearGradient id="paint0_linear_7371_104899" x1="182.979" y1="99.1799" x2="182.979" y2="235.156" gradientUnits="userSpaceOnUse">
<stop stop-color="white" stop-opacity="0.23"/>
<stop offset="1" stop-color="white" stop-opacity="0"/>
</linearGradient>
<linearGradient id="paint1_linear_7371_104899" x1="182.979" y1="99.1806" x2="182.979" y2="235.157" gradientUnits="userSpaceOnUse">
<stop stop-color="white"/>
<stop offset="1" stop-color="white" stop-opacity="0"/>
</linearGradient>
<linearGradient id="paint2_linear_7371_104899" x1="146.087" y1="94.5029" x2="146.087" y2="235.26" gradientUnits="userSpaceOnUse">
<stop stop-color="white" stop-opacity="0.23"/>
<stop offset="1" stop-color="white" stop-opacity="0"/>
</linearGradient>
<linearGradient id="paint3_linear_7371_104899" x1="248.868" y1="94.5029" x2="248.868" y2="99.1801" gradientUnits="userSpaceOnUse">
<stop stop-color="white" stop-opacity="0.23"/>
<stop offset="1" stop-color="white" stop-opacity="0"/>
</linearGradient>
<linearGradient id="paint4_linear_7371_104899" x1="252.458" y1="64.4259" x2="252.458" y2="104.336" gradientUnits="userSpaceOnUse">
<stop stop-color="white" stop-opacity="0.23"/>
<stop offset="1" stop-color="white" stop-opacity="0"/>
</linearGradient>
<linearGradient id="paint5_linear_7371_104899" x1="252.435" y1="64.4258" x2="252.435" y2="104.336" gradientUnits="userSpaceOnUse">
<stop stop-color="white"/>
<stop offset="1" stop-color="white" stop-opacity="0"/>
</linearGradient>
<linearGradient id="paint6_linear_7371_104899" x1="231.267" y1="59.4705" x2="231.267" y2="104.135" gradientUnits="userSpaceOnUse">
<stop stop-color="white" stop-opacity="0.23"/>
<stop offset="1" stop-color="white" stop-opacity="0"/>
</linearGradient>
</defs>
</svg>
