<svg width="302" height="196" viewBox="0 0 302 196" fill="none" xmlns="http://www.w3.org/2000/svg">
<g filter="url(#filter0_b_7371_105915)">
<rect x="0.65625" y="0.0473633" width="300.351" height="195.951" rx="11.9128" fill="#F97316"/>
</g>
<path d="M282.37 0.0473633H12.5659C5.98838 0.0473633 0.65625 5.3795 0.65625 11.957V184.997C0.65625 186.273 2.0738 187.04 3.14201 186.34L283.249 2.99739C284.585 2.12324 283.966 0.0473633 282.37 0.0473633Z" fill="#FA6803"/>
<path d="M256.376 99.984C257.95 94.3516 257.324 88.3315 254.624 83.1437C251.925 77.9559 247.354 73.9885 241.838 72.0457L240.42 76.5336C244.741 78.1059 248.314 81.242 250.433 85.3219C252.552 89.4018 253.064 94.1283 251.866 98.567L256.376 99.984Z" fill="white"/>
<path d="M244.868 114.162C246.639 113.247 248.282 112.102 249.754 110.756C252.546 108.197 254.664 104.989 255.922 101.416L251.434 99.999C250.385 102.906 248.618 105.5 246.297 107.541C243.977 109.581 241.178 111.002 238.161 111.671C235.144 112.34 232.007 112.235 229.041 111.366C226.076 110.497 223.378 108.892 221.199 106.701L217.73 109.881C221.2 113.404 225.709 115.721 230.593 116.492C235.478 117.263 240.481 116.446 244.868 114.162Z" fill="white"/>
<path opacity="0.7" d="M244.868 114.162C246.639 113.247 248.282 112.102 249.754 110.756C252.546 108.197 254.664 104.989 255.922 101.416L251.434 99.999C250.385 102.906 248.618 105.5 246.297 107.541C243.977 109.581 241.178 111.002 238.161 111.671C235.144 112.34 232.007 112.235 229.041 111.366C226.076 110.497 223.378 108.892 221.199 106.701L217.73 109.881C221.2 113.404 225.709 115.721 230.593 116.492C235.478 117.263 240.481 116.446 244.868 114.162Z" fill="white"/>
<path d="M220.165 105.592C217.646 102.607 216.147 98.8952 215.886 94.9984C215.626 91.1016 216.616 87.2234 218.714 83.9292C220.812 80.635 223.908 78.0971 227.549 76.6856C231.191 75.2741 235.188 75.0628 238.958 76.0825L240.375 71.5721C234.615 69.959 228.454 70.6485 223.194 73.4948C217.933 76.3411 213.986 81.1212 212.185 86.8248C211.014 90.5608 210.812 94.5329 211.597 98.3685C212.382 102.204 214.128 105.777 216.673 108.753L220.165 105.592Z" fill="white"/>
<path opacity="0.3" d="M220.165 105.592C217.646 102.607 216.147 98.8952 215.886 94.9984C215.626 91.1016 216.616 87.2234 218.714 83.9292C220.812 80.635 223.908 78.0971 227.549 76.6856C231.191 75.2741 235.188 75.0628 238.958 76.0825L240.375 71.5721C234.615 69.959 228.454 70.6485 223.194 73.4948C217.933 76.3411 213.986 81.1212 212.185 86.8248C211.014 90.5608 210.812 94.5329 211.597 98.3685C212.382 102.204 214.128 105.777 216.673 108.753L220.165 105.592Z" fill="#F97316"/>
<path d="M229.897 88.2118C230.428 87.6805 231.059 87.2589 231.753 86.9713C232.447 86.6836 233.191 86.5355 233.942 86.5353C234.693 86.5351 235.437 86.6829 236.131 86.9702C236.825 87.2576 237.456 87.6788 237.988 88.21C238.519 88.7411 238.94 89.3716 239.228 90.0657C239.516 90.7597 239.664 91.5036 239.664 92.2548C239.664 93.0061 239.516 93.7501 239.229 94.4442C238.942 95.1384 238.521 95.7692 237.989 96.3005L233.945 100.345L229.897 96.3005C228.825 95.2277 228.222 93.773 228.222 92.2562C228.222 90.7393 228.825 89.2846 229.897 88.2118Z" fill="white"/>
<path opacity="0.3" d="M229.897 88.2118C230.428 87.6805 231.059 87.2589 231.753 86.9713C232.447 86.6836 233.191 86.5355 233.942 86.5353C234.693 86.5351 235.437 86.6829 236.131 86.9702C236.825 87.2576 237.456 87.6788 237.988 88.21C238.519 88.7411 238.94 89.3716 239.228 90.0657C239.516 90.7597 239.664 91.5036 239.664 92.2548C239.664 93.0061 239.516 93.7501 239.229 94.4442C238.942 95.1384 238.521 95.7692 237.989 96.3005L233.945 100.345L229.897 96.3005C228.825 95.2277 228.222 93.773 228.222 92.2562C228.222 90.7393 228.825 89.2846 229.897 88.2118Z" fill="#F97316"/>
<path d="M233.713 101.544H234.164V103.348H233.713V101.544Z" fill="white"/>
<path opacity="0.3" d="M223.713 101.544H224.164V103.348H223.713V101.544Z" fill="#F97316"/>
<path d="M233.713 104.742H234.164V106.547H233.713V104.742Z" fill="white"/>
<path opacity="0.3" d="M223.713 104.742H224.164V106.547H223.713V104.742Z" fill="#F97316"/>
<path d="M249.55 119.341H264.859V174.774H249.55V119.341Z" fill="white"/>
<path opacity="0.7" d="M249.55 119.341H264.859V174.774H249.55V119.341Z" fill="white"/>
<path d="M242.206 119.341H249.555V174.774H242.206V119.341Z" fill="white"/>
<path opacity="0.5" d="M242.206 119.341H249.555V174.774H242.206V119.341Z" fill="white"/>
<path d="M221.234 139.743H221.625V148.373H221.234V139.743Z" fill="#F97316"/>
<path d="M221.234 134.669H221.625V138.138H221.234V134.669Z" fill="#F97316"/>
<path d="M210.371 153.726H225.68V174.774H210.371V153.726Z" fill="white"/>
<path opacity="0.5" d="M210.371 153.726H225.68V174.774H210.371V153.726Z" fill="#F97316"/>
<path d="M203.027 153.726H210.375V174.774H203.027V153.726Z" fill="white"/>
<path opacity="0.6" d="M203.027 153.726H210.375V174.774H203.027V153.726Z" fill="#F97316"/>
<path d="M230.327 128.54H245.586V175.118H230.327V128.54Z" fill="white"/>
<path opacity="0.7" d="M230.327 128.54H245.586V175.118H230.327V128.54Z" fill="#F97316"/>
<path d="M222.297 128.54H230.328V175.118H222.297V128.54Z" fill="white"/>
<path opacity="0.8" d="M222.297 128.54H230.328V175.118H222.297V128.54Z" fill="#F97316"/>
<defs>
<filter id="filter0_b_7371_105915" x="-237.6" y="-238.209" width="776.864" height="672.463" filterUnits="userSpaceOnUse" color-interpolation-filters="sRGB">
<feFlood flood-opacity="0" result="BackgroundImageFix"/>
<feGaussianBlur in="BackgroundImageFix" stdDeviation="119.128"/>
<feComposite in2="SourceAlpha" operator="in" result="effect1_backgroundBlur_7371_105915"/>
<feBlend mode="normal" in="SourceGraphic" in2="effect1_backgroundBlur_7371_105915" result="shape"/>
</filter>
</defs>
</svg>
