<svg width="34" height="35" viewBox="0 0 34 35" fill="none" xmlns="http://www.w3.org/2000/svg">
<g filter="url(#filter0_b_7167_104903)">
<rect y="0.414673" width="34" height="34" rx="17" fill="#F8F0FF"/>
</g>
<g clip-path="url(#clip0_7167_104903)">
<path d="M14.8631 16.9732C14.8631 15.5507 16.016 14.3972 17.4385 14.3972C18.8611 14.3972 20.0146 15.5507 20.0146 16.9732C20.0146 18.3957 18.8611 19.5491 17.4385 19.5491C16.016 19.5491 14.8631 18.3957 14.8631 16.9732ZM13.4705 16.9732C13.4705 19.1646 15.247 20.941 17.4385 20.941C19.6301 20.941 21.4066 19.1646 21.4066 16.9732C21.4066 14.7817 19.6301 13.0053 17.4385 13.0053C15.247 13.0053 13.4705 14.7817 13.4705 16.9732ZM20.6363 12.848C20.6361 13.3601 21.0511 13.7754 21.5633 13.7756C22.0754 13.7758 22.4907 13.3608 22.491 12.8487C22.4912 12.3366 22.0762 11.9213 21.564 11.9211C21.0521 11.9213 20.6368 12.3361 20.6363 12.848ZM14.3166 23.263C13.5632 23.2287 13.1537 23.1032 12.8815 22.9972C12.5208 22.8567 12.2633 22.6894 11.9927 22.4192C11.722 22.1489 11.5545 21.8917 11.4147 21.531C11.3086 21.259 11.1831 20.8494 11.1488 20.096C11.1114 19.2815 11.1039 19.0368 11.1039 16.9732C11.1039 14.9097 11.112 14.6657 11.1488 13.8505C11.1831 13.0971 11.3096 12.6883 11.4147 12.4155C11.5551 12.0547 11.7224 11.7973 11.9927 11.5267C12.263 11.256 12.5201 11.0885 12.8815 10.9487C13.1535 10.8426 13.5632 10.7171 14.3166 10.6828C15.1311 10.6454 15.3758 10.6379 17.4385 10.6379C19.5012 10.6379 19.7462 10.646 20.5614 10.6828C21.3148 10.7172 21.7236 10.8436 21.9964 10.9487C22.3572 11.0885 22.6147 11.2564 22.8853 11.5267C23.156 11.7969 23.3229 12.0547 23.4633 12.4155C23.5694 12.6875 23.6949 13.0971 23.7292 13.8505C23.7666 14.6657 23.7741 14.9097 23.7741 16.9732C23.7741 19.0368 23.7666 19.2808 23.7292 20.096C23.6948 20.8494 23.5687 21.2588 23.4633 21.531C23.3229 21.8917 23.1556 22.1491 22.8853 22.4192C22.615 22.6892 22.3572 22.8567 21.9964 22.9972C21.7244 23.1032 21.3148 23.2287 20.5614 23.263C19.7469 23.3004 19.5022 23.3079 17.4385 23.3079C15.3749 23.3079 15.1309 23.3004 14.3166 23.263ZM14.2526 9.29268C13.4299 9.33014 12.8678 9.46057 12.3769 9.65159C11.8685 9.84886 11.4381 10.1135 11.008 10.5429C10.5779 10.9723 10.3139 11.4033 10.1167 11.9117C9.92564 12.4029 9.7952 12.9647 9.75774 13.7874C9.71965 14.6113 9.71094 14.8747 9.71094 16.9732C9.71094 19.0716 9.71965 19.3351 9.75774 20.159C9.7952 20.9816 9.92564 21.5434 10.1167 22.0346C10.3139 22.5427 10.578 22.9742 11.008 23.4034C11.438 23.8326 11.8685 24.0969 12.3769 24.2947C12.8687 24.4857 13.4299 24.6162 14.2526 24.6536C15.077 24.6911 15.34 24.7004 17.4385 24.7004C19.5371 24.7004 19.8005 24.6917 20.6245 24.6536C21.4472 24.6162 22.0089 24.4857 22.5002 24.2947C23.0083 24.0969 23.439 23.8328 23.8691 23.4034C24.2991 22.974 24.5626 22.5427 24.7604 22.0346C24.9514 21.5434 25.0825 20.9816 25.1193 20.159C25.1568 19.3344 25.1655 19.0716 25.1655 16.9732C25.1655 14.8747 25.1568 14.6113 25.1193 13.7874C25.0819 12.9647 24.9514 12.4026 24.7604 11.9117C24.5626 11.4036 24.2985 10.973 23.8691 10.5429C23.4397 10.1128 23.0083 9.84886 22.5008 9.65159C22.0089 9.46057 21.4471 9.32952 20.6251 9.29268C19.8011 9.25521 19.5377 9.24588 17.4391 9.24588C15.3406 9.24588 15.077 9.2546 14.2526 9.29268Z" fill="#8807F7"/>
</g>
<defs>
<filter id="filter0_b_7167_104903" x="-176.624" y="-176.209" width="387.247" height="387.247" filterUnits="userSpaceOnUse" color-interpolation-filters="sRGB">
<feFlood flood-opacity="0" result="BackgroundImageFix"/>
<feGaussianBlur in="BackgroundImageFix" stdDeviation="88.3118"/>
<feComposite in2="SourceAlpha" operator="in" result="effect1_backgroundBlur_7167_104903"/>
<feBlend mode="normal" in="SourceGraphic" in2="effect1_backgroundBlur_7167_104903" result="shape"/>
</filter>
<clipPath id="clip0_7167_104903">
<rect width="15.4546" height="15.4546" fill="white" transform="translate(9.71875 9.24585)"/>
</clipPath>
</defs>
</svg>
