<svg width="301" height="196" viewBox="0 0 301 196" fill="none" xmlns="http://www.w3.org/2000/svg">
<g filter="url(#filter0_b_7371_104901)">
<rect x="0.445312" y="0.0473633" width="300.351" height="195.951" rx="11.9128" fill="#8807F7"/>
</g>
<path d="M282.159 0.0473633H12.355C5.77744 0.0473633 0.445312 5.3795 0.445312 11.957V184.997C0.445312 186.273 1.86286 187.04 2.93108 186.34L283.039 2.99739C284.374 2.12324 283.755 0.0473633 282.159 0.0473633Z" fill="#820CE8"/>
<path d="M220.799 81.5063H185.953V173.203H220.799V81.5063Z" fill="#8807F7"/>
<path opacity="0.5" d="M220.906 81.5063H194.922V173.203H220.906V81.5063Z" fill="black"/>
<path d="M266.331 112.768H231.484V173.198H266.331V112.768Z" fill="#8807F7"/>
<path opacity="0.3" d="M266.32 112.626H240.336V173.203H266.32V112.626Z" fill="black"/>
<path d="M175.049 97.8577H140.203V173.198H175.049V97.8577Z" fill="#8807F7"/>
<path opacity="0.4" d="M175.062 97.6734H149.078V173.198H175.062V97.6734Z" fill="black"/>
<path d="M153.766 173.298C153.719 174.422 157.271 175.483 161.683 175.673C166.096 175.863 169.743 175.103 169.79 173.978C169.838 172.854 166.286 171.799 161.873 171.609C157.461 171.419 153.814 172.179 153.766 173.298Z" fill="#8807F7"/>
<path d="M153.852 171.261L153.766 173.291L169.807 173.972L169.893 171.941L153.852 171.261Z" fill="#8807F7"/>
<path d="M153.86 171.266C153.812 172.39 157.365 173.451 161.777 173.641C166.19 173.831 169.837 173.071 169.884 171.947C169.932 170.822 166.38 169.767 161.967 169.577C157.555 169.387 153.907 170.147 153.86 171.266Z" fill="#8807F7"/>
<path opacity="0.4" d="M153.86 171.266C153.812 172.39 157.365 173.451 161.777 173.641C166.19 173.831 169.837 173.071 169.884 171.947C169.932 170.822 166.38 169.767 161.967 169.577C157.555 169.387 153.907 170.147 153.86 171.266Z" fill="white"/>
<path d="M154.891 171.234C154.891 171.307 154.915 171.377 154.959 171.435C155.487 170.775 158.427 170.379 161.932 170.532C165.436 170.685 168.334 171.319 168.793 172.021C168.846 171.969 168.876 171.899 168.878 171.825C168.909 171.065 165.806 170.305 161.937 170.141C158.068 169.978 154.922 170.474 154.891 171.234Z" fill="#8807F7"/>
<path opacity="0.4" d="M154.891 171.234C154.891 171.307 154.915 171.377 154.959 171.435C155.487 170.775 158.427 170.379 161.932 170.532C165.436 170.685 168.334 171.319 168.793 172.021C168.846 171.969 168.876 171.899 168.878 171.825C168.909 171.065 165.806 170.305 161.937 170.141C158.068 169.978 154.922 170.474 154.891 171.234Z" fill="#8807F7"/>
<path opacity="0.4" d="M154.945 171.434C155.426 172.136 158.313 172.77 161.807 172.917C165.301 173.065 168.251 172.68 168.779 172.02C168.31 171.318 165.422 170.685 161.918 170.532C158.413 170.379 155.484 170.775 154.945 171.434Z" fill="#8807F7"/>
<path d="M152.063 170.22C152.015 171.344 155.568 172.405 159.98 172.595C164.393 172.785 168.04 172.025 168.087 170.906C168.135 169.787 164.583 168.721 160.17 168.531C155.758 168.341 152.132 169.101 152.063 170.22Z" fill="#8807F7"/>
<path d="M152.172 168.195L152.086 170.225L168.128 170.906L168.214 168.876L152.172 168.195Z" fill="#8807F7"/>
<path d="M152.172 168.194C152.125 169.313 155.677 170.374 160.09 170.564C164.502 170.754 168.149 169.994 168.197 168.875C168.244 167.756 164.692 166.69 160.28 166.5C155.867 166.31 152.22 167.07 152.172 168.194Z" fill="#8807F7"/>
<path opacity="0.4" d="M152.172 168.194C152.125 169.313 155.677 170.374 160.09 170.564C164.502 170.754 168.149 169.994 168.197 168.875C168.244 167.756 164.692 166.69 160.28 166.5C155.867 166.31 152.22 167.07 152.172 168.194Z" fill="white"/>
<path d="M153.188 168.157C153.185 168.23 153.21 168.301 153.256 168.357C153.784 167.697 156.724 167.302 160.229 167.46C163.733 167.618 166.631 168.241 167.09 168.943C167.138 168.891 167.168 168.824 167.175 168.753C167.206 167.993 164.103 167.228 160.234 167.064C156.365 166.9 153.219 167.397 153.188 168.157Z" fill="#8807F7"/>
<path opacity="0.4" d="M153.188 168.157C153.185 168.23 153.21 168.301 153.256 168.357C153.784 167.697 156.724 167.302 160.229 167.46C163.733 167.618 166.631 168.241 167.09 168.943C167.138 168.891 167.168 168.824 167.175 168.753C167.206 167.993 164.103 167.228 160.234 167.064C156.365 166.9 153.219 167.397 153.188 168.157Z" fill="#8807F7"/>
<path opacity="0.4" d="M153.266 168.358C153.741 169.06 156.633 169.693 160.127 169.841C163.621 169.988 166.572 169.603 167.1 168.943C166.63 168.241 163.743 167.608 160.238 167.46C156.733 167.312 153.799 167.698 153.266 168.358Z" fill="#8807F7"/>
<path d="M152.297 166.515C152.25 167.639 155.802 168.7 160.215 168.89C164.627 169.08 168.274 168.32 168.322 167.196C168.369 166.072 164.817 165.016 160.405 164.826C155.992 164.636 152.345 165.396 152.297 166.515Z" fill="#8807F7"/>
<path d="M152.383 164.485L152.297 166.515L168.339 167.196L168.425 165.166L152.383 164.485Z" fill="#8807F7"/>
<path d="M152.391 164.483C152.344 165.608 155.896 166.669 160.308 166.859C164.721 167.049 168.363 166.289 168.41 165.17C168.458 164.051 164.906 162.984 160.493 162.794C156.081 162.604 152.439 163.364 152.391 164.483Z" fill="#8807F7"/>
<path opacity="0.4" d="M152.391 164.483C152.344 165.608 155.896 166.669 160.308 166.859C164.721 167.049 168.363 166.289 168.41 165.17C168.458 164.051 164.906 162.984 160.493 162.794C156.081 162.604 152.439 163.364 152.391 164.483Z" fill="white"/>
<path d="M153.414 164.452C153.414 164.525 153.438 164.595 153.483 164.652C154.01 163.993 156.95 163.597 160.455 163.755C163.96 163.914 166.857 164.536 167.317 165.238C167.369 165.189 167.399 165.12 167.401 165.048C167.433 164.288 164.329 163.523 160.46 163.359C156.591 163.196 153.446 163.692 153.414 164.452Z" fill="#8807F7"/>
<path opacity="0.4" d="M153.414 164.452C153.414 164.525 153.438 164.595 153.483 164.652C154.01 163.993 156.95 163.597 160.455 163.755C163.96 163.914 166.857 164.536 167.317 165.238C167.369 165.189 167.399 165.12 167.401 165.048C167.433 164.288 164.329 163.523 160.46 163.359C156.591 163.196 153.446 163.692 153.414 164.452Z" fill="#8807F7"/>
<path opacity="0.4" d="M153.484 164.652C153.965 165.354 156.852 165.987 160.346 166.135C163.84 166.283 166.791 165.898 167.318 165.238C166.849 164.536 163.961 163.903 160.457 163.755C156.952 163.607 154.023 164.003 153.484 164.652Z" fill="#8807F7"/>
<path d="M150.618 163.444C150.57 164.563 154.122 165.624 158.535 165.814C162.947 166.004 166.595 165.244 166.642 164.125C166.69 163.006 163.137 161.94 158.725 161.75C154.312 161.56 150.665 162.32 150.618 163.444Z" fill="#8807F7"/>
<path d="M150.703 161.398L150.617 163.428L166.659 164.109L166.745 162.078L150.703 161.398Z" fill="#8807F7"/>
<path d="M150.696 161.411C150.648 162.53 154.2 163.591 158.613 163.781C163.025 163.971 166.673 163.211 166.72 162.092C166.768 160.973 163.215 159.907 158.803 159.717C154.39 159.527 150.743 160.308 150.696 161.411Z" fill="#8807F7"/>
<path opacity="0.4" d="M150.696 161.411C150.648 162.53 154.2 163.591 158.613 163.781C163.025 163.971 166.673 163.211 166.72 162.092C166.768 160.973 163.215 159.907 158.803 159.717C154.39 159.527 150.743 160.308 150.696 161.411Z" fill="white"/>
<path d="M151.727 161.364C151.724 161.437 151.748 161.508 151.795 161.564C152.323 160.905 155.263 160.509 158.768 160.667C162.273 160.825 165.17 161.448 165.629 162.15C165.677 162.098 165.707 162.031 165.714 161.96C165.746 161.2 162.642 160.435 158.773 160.271C154.904 160.108 151.759 160.614 151.727 161.364Z" fill="#8807F7"/>
<path opacity="0.4" d="M151.727 161.364C151.724 161.437 151.748 161.508 151.795 161.564C152.323 160.905 155.263 160.509 158.768 160.667C162.273 160.825 165.17 161.448 165.629 162.15C165.677 162.098 165.707 162.031 165.714 161.96C165.746 161.2 162.642 160.435 158.773 160.271C154.904 160.108 151.759 160.614 151.727 161.364Z" fill="#8807F7"/>
<path opacity="0.4" d="M151.797 161.575C152.272 162.277 155.164 162.911 158.658 163.058C162.153 163.206 165.103 162.821 165.631 162.161C165.161 161.459 162.274 160.826 158.769 160.678C155.265 160.53 152.33 160.915 151.797 161.575Z" fill="#8807F7"/>
<path d="M153.188 160.836C153.14 161.955 156.693 163.016 161.105 163.206C165.518 163.396 169.165 162.636 169.212 161.517C169.26 160.398 165.708 159.332 161.295 159.142C156.883 158.952 153.235 159.712 153.188 160.836Z" fill="#8807F7"/>
<path d="M153.274 158.803L153.188 160.834L169.229 161.514L169.315 159.484L153.274 158.803Z" fill="#8807F7"/>
<path d="M153.274 158.804C153.226 159.923 156.779 160.984 161.191 161.174C165.604 161.364 169.251 160.604 169.298 159.485C169.346 158.366 165.794 157.3 161.381 157.11C156.969 156.92 153.321 157.669 153.274 158.804Z" fill="#8807F7"/>
<path opacity="0.4" d="M153.274 158.804C153.226 159.923 156.779 160.984 161.191 161.174C165.604 161.364 169.251 160.604 169.298 159.485C169.346 158.366 165.794 157.3 161.381 157.11C156.969 156.92 153.321 157.669 153.274 158.804Z" fill="white"/>
<path d="M154.297 158.767C154.299 158.839 154.323 158.909 154.365 158.967C154.893 158.308 157.839 157.912 161.338 158.07C164.837 158.229 167.746 158.851 168.199 159.553C168.251 159.503 168.283 159.435 168.289 159.363C168.321 158.603 165.217 157.838 161.348 157.674C157.48 157.511 154.334 158.007 154.297 158.767Z" fill="#8807F7"/>
<path opacity="0.4" d="M154.297 158.767C154.299 158.839 154.323 158.909 154.365 158.967C154.893 158.308 157.839 157.912 161.338 158.07C164.837 158.229 167.746 158.851 168.199 159.553C168.251 159.503 168.283 159.435 168.289 159.363C168.321 158.603 165.217 157.838 161.348 157.674C157.48 157.511 154.334 158.007 154.297 158.767Z" fill="#8807F7"/>
<path opacity="0.4" d="M154.367 158.968C154.847 159.67 157.735 160.303 161.229 160.451C164.723 160.599 167.679 160.213 168.201 159.554C167.737 158.852 164.844 158.218 161.34 158.07C157.835 157.923 154.906 158.308 154.367 158.968Z" fill="#8807F7"/>
<path d="M151.493 157.759C151.445 158.878 154.997 159.944 159.41 160.129C163.822 160.313 167.47 159.559 167.517 158.44C167.565 157.321 164.012 156.254 159.6 156.064C155.187 155.874 151.524 156.613 151.493 157.759Z" fill="#8807F7"/>
<path d="M151.578 155.721L151.492 157.751L167.534 158.432L167.62 156.401L151.578 155.721Z" fill="#8807F7"/>
<path d="M151.594 155.727C151.547 156.846 155.099 157.912 159.511 158.097C163.924 158.281 167.571 157.532 167.619 156.408C167.666 155.283 164.114 154.222 159.701 154.032C155.289 153.842 151.642 154.603 151.594 155.727Z" fill="#8807F7"/>
<path opacity="0.4" d="M151.594 155.727C151.547 156.846 155.099 157.912 159.511 158.097C163.924 158.281 167.571 157.532 167.619 156.408C167.666 155.283 164.114 154.222 159.701 154.032C155.289 153.842 151.642 154.603 151.594 155.727Z" fill="white"/>
<path d="M152.586 155.69C152.584 155.763 152.609 155.834 152.655 155.891C153.182 155.231 156.122 154.835 159.627 154.994C163.132 155.152 166.029 155.775 166.489 156.482C166.54 156.43 166.57 156.36 166.573 156.287C166.605 155.527 163.501 154.767 159.632 154.598C155.763 154.429 152.639 154.93 152.586 155.69Z" fill="#8807F7"/>
<path opacity="0.4" d="M152.586 155.69C152.584 155.763 152.609 155.834 152.655 155.891C153.182 155.231 156.122 154.835 159.627 154.994C163.132 155.152 166.029 155.775 166.489 156.482C166.54 156.43 166.57 156.36 166.573 156.287C166.605 155.527 163.501 154.767 159.632 154.598C155.763 154.429 152.639 154.93 152.586 155.69Z" fill="#8807F7"/>
<path opacity="0.4" d="M152.664 155.891C153.144 156.593 156.032 157.226 159.526 157.379C163.02 157.532 165.97 157.142 166.498 156.482C166.028 155.775 163.141 155.141 159.636 154.994C156.132 154.846 153.202 155.231 152.664 155.891Z" fill="#8807F7"/>
<path d="M129.844 172.316C129.792 173.441 133.344 174.501 137.762 174.686C142.179 174.871 145.816 174.121 145.863 172.997C145.911 171.873 142.364 170.812 137.946 170.627C133.528 170.443 129.892 171.192 129.844 172.316Z" fill="#8807F7"/>
<path d="M129.93 170.274L129.844 172.304L145.885 172.985L145.972 170.954L129.93 170.274Z" fill="#8807F7"/>
<path d="M129.946 170.284C129.898 171.408 133.45 172.469 137.863 172.659C142.275 172.849 145.923 172.089 145.97 170.965C146.018 169.841 142.466 168.78 138.053 168.595C133.64 168.41 129.993 169.16 129.946 170.284Z" fill="#8807F7"/>
<path opacity="0.4" d="M129.946 170.284C129.898 171.408 133.45 172.469 137.863 172.659C142.275 172.849 145.923 172.089 145.97 170.965C146.018 169.841 142.466 168.78 138.053 168.595C133.64 168.41 129.993 169.16 129.946 170.284Z" fill="white"/>
<path d="M130.93 170.247C130.926 170.32 130.95 170.392 130.999 170.447C131.527 169.788 134.467 169.392 137.971 169.55C141.476 169.708 144.374 170.337 144.833 171.039C144.881 170.984 144.91 170.916 144.917 170.843C144.949 170.083 141.845 169.323 137.976 169.16C134.108 168.996 130.967 169.487 130.93 170.247Z" fill="#8807F7"/>
<path opacity="0.4" d="M130.93 170.247C130.926 170.32 130.95 170.392 130.999 170.447C131.527 169.788 134.467 169.392 137.971 169.55C141.476 169.708 144.374 170.337 144.833 171.039C144.881 170.984 144.91 170.916 144.917 170.843C144.949 170.083 141.845 169.323 137.976 169.16C134.108 168.996 130.967 169.487 130.93 170.247Z" fill="#8807F7"/>
<path opacity="0.4" d="M131.031 170.448C131.506 171.15 134.399 171.788 137.893 171.936C141.387 172.084 144.337 171.699 144.865 171.039C144.395 170.337 141.508 169.698 138.004 169.55C134.499 169.403 131.564 169.809 131.031 170.448Z" fill="#8807F7"/>
<path d="M136.827 170.337C136.563 171.429 139.852 173.145 144.164 174.169C148.476 175.192 152.187 175.14 152.445 174.047C152.704 172.955 149.416 171.239 145.103 170.215C140.791 169.191 137.086 169.244 136.827 170.337Z" fill="#8807F7"/>
<path d="M137.291 168.37L136.82 170.347L152.441 174.062L152.911 172.085L137.291 168.37Z" fill="#8807F7"/>
<path d="M137.296 168.357C137.032 169.45 140.32 171.165 144.633 172.195C148.945 173.224 152.655 173.166 152.914 172.073C153.173 170.981 149.9 169.281 145.583 168.225C141.265 167.17 137.565 167.265 137.296 168.357Z" fill="#8807F7"/>
<path opacity="0.4" d="M137.296 168.357C137.032 169.45 140.32 171.165 144.633 172.195C148.945 173.224 152.655 173.166 152.914 172.073C153.173 170.981 149.9 169.281 145.583 168.225C141.265 167.17 137.565 167.265 137.296 168.357Z" fill="white"/>
<path d="M138.304 168.516C138.288 168.588 138.299 168.663 138.335 168.727C138.985 168.199 141.94 168.358 145.35 169.17C148.76 169.983 151.488 171.155 151.816 171.931C151.875 171.889 151.918 171.827 151.937 171.757C152.111 171.018 149.208 169.682 145.44 168.785C141.671 167.888 138.483 167.777 138.304 168.516Z" fill="#8807F7"/>
<path opacity="0.4" d="M138.304 168.516C138.288 168.588 138.299 168.663 138.335 168.727C138.985 168.199 141.94 168.358 145.35 169.17C148.76 169.983 151.488 171.155 151.816 171.931C151.875 171.889 151.918 171.827 151.937 171.757C152.111 171.018 149.208 169.682 145.44 168.785C141.671 167.888 138.483 167.777 138.304 168.516Z" fill="#8807F7"/>
<path opacity="0.4" d="M138.344 168.753C138.682 169.534 141.395 170.706 144.809 171.514C148.224 172.321 151.18 172.506 151.824 171.957C151.497 171.181 148.779 170.009 145.358 169.196C141.938 168.384 138.988 168.178 138.344 168.753Z" fill="#8807F7"/>
<path d="M157.184 157.089C161.178 157.089 164.415 153.851 164.415 149.858C164.415 145.864 161.178 142.627 157.184 142.627C153.191 142.627 149.953 145.864 149.953 149.858C149.953 153.851 153.191 157.089 157.184 157.089Z" fill="#8807F7"/>
<path d="M158.051 157.089C162.045 157.089 165.282 153.851 165.282 149.858C165.282 145.864 162.045 142.627 158.051 142.627C154.058 142.627 150.82 145.864 150.82 149.858C150.82 153.851 154.058 157.089 158.051 157.089Z" fill="#8807F7"/>
<path opacity="0.5" d="M158.051 157.089C162.045 157.089 165.282 153.851 165.282 149.858C165.282 145.864 162.045 142.627 158.051 142.627C154.058 142.627 150.82 145.864 150.82 149.858C150.82 153.851 154.058 157.089 158.051 157.089Z" fill="white"/>
<path d="M161.886 153.687C164.001 151.572 164.001 148.143 161.886 146.028C159.771 143.914 156.343 143.914 154.228 146.028C152.113 148.143 152.113 151.572 154.228 153.687C156.343 155.802 159.771 155.802 161.886 153.687Z" fill="#8807F7"/>
<path d="M259.358 174.29C259.316 175.409 255.695 176.19 251.262 176.031C246.828 175.873 243.276 174.833 243.313 173.714C243.35 172.595 246.981 171.809 251.409 171.967C255.838 172.126 259.401 173.165 259.358 174.29Z" fill="#8807F7"/>
<path d="M243.385 171.666L243.312 173.696L259.358 174.271L259.431 172.24L243.385 171.666Z" fill="#8807F7"/>
<path d="M259.436 172.258C259.394 173.377 255.773 174.158 251.34 174C246.906 173.841 243.354 172.802 243.391 171.683C243.428 170.564 247.054 169.777 251.488 169.936C255.921 170.094 259.479 171.134 259.436 172.258Z" fill="#8807F7"/>
<path opacity="0.4" d="M259.436 172.258C259.394 173.377 255.773 174.158 251.34 174C246.906 173.841 243.354 172.802 243.391 171.683C243.428 170.564 247.054 169.777 251.488 169.936C255.921 170.094 259.479 171.134 259.436 172.258Z" fill="white"/>
<path d="M258.401 172.142C258.398 172.215 258.368 172.285 258.317 172.337C257.836 171.635 254.944 171.017 251.455 170.896C247.966 170.775 245.01 171.176 244.488 171.836C244.442 171.781 244.415 171.712 244.414 171.64C244.446 170.88 247.581 170.363 251.466 170.5C255.35 170.637 258.427 171.392 258.401 172.142Z" fill="#8807F7"/>
<path opacity="0.4" d="M258.401 172.142C258.398 172.215 258.368 172.285 258.317 172.337C257.836 171.635 254.944 171.017 251.455 170.896C247.966 170.775 245.01 171.176 244.488 171.836C244.442 171.781 244.415 171.712 244.414 171.64C244.446 170.88 247.581 170.363 251.466 170.5C255.35 170.637 258.427 171.392 258.401 172.142Z" fill="#8807F7"/>
<path opacity="0.4" d="M258.337 172.337C257.809 172.997 254.874 173.392 251.369 173.276C247.865 173.16 244.962 172.537 244.508 171.835C245.036 171.176 247.96 170.78 251.475 170.896C254.99 171.012 257.856 171.635 258.337 172.337Z" fill="#8807F7"/>
<path d="M261.272 171.355C261.23 172.474 257.609 173.255 253.176 173.097C248.742 172.939 245.19 171.899 245.227 170.775C245.264 169.65 248.895 168.874 253.323 169.033C257.752 169.191 261.32 170.231 261.272 171.355Z" fill="#8807F7"/>
<path d="M245.315 168.76L245.242 170.79L261.288 171.368L261.361 169.337L245.315 168.76Z" fill="#8807F7"/>
<path d="M261.343 169.323C261.301 170.442 257.68 171.224 253.246 171.065C248.812 170.907 245.255 169.867 245.297 168.743C245.339 167.619 248.96 166.843 253.394 167.001C257.828 167.159 261.38 168.226 261.343 169.323Z" fill="#8807F7"/>
<path opacity="0.4" d="M261.343 169.323C261.301 170.442 257.68 171.224 253.246 171.065C248.812 170.907 245.255 169.867 245.297 168.743C245.339 167.619 248.96 166.843 253.394 167.001C257.828 167.159 261.38 168.226 261.343 169.323Z" fill="white"/>
<path d="M260.339 169.207C260.336 169.279 260.306 169.348 260.254 169.398C259.774 168.701 256.881 168.083 253.393 167.962C249.904 167.84 246.943 168.242 246.425 168.901C246.379 168.847 246.353 168.778 246.352 168.706C246.383 167.946 249.518 167.429 253.403 167.566C257.288 167.703 260.365 168.447 260.339 169.207Z" fill="#8807F7"/>
<path opacity="0.4" d="M260.339 169.207C260.336 169.279 260.306 169.348 260.254 169.398C259.774 168.701 256.881 168.083 253.393 167.962C249.904 167.84 246.943 168.242 246.425 168.901C246.379 168.847 246.353 168.778 246.352 168.706C246.383 167.946 249.518 167.429 253.403 167.566C257.288 167.703 260.365 168.447 260.339 169.207Z" fill="#8807F7"/>
<path opacity="0.4" d="M260.266 169.397C259.738 170.062 256.804 170.453 253.299 170.342C249.794 170.231 246.891 169.603 246.438 168.901C246.965 168.241 249.889 167.845 253.405 167.962C256.92 168.078 259.765 168.701 260.266 169.397Z" fill="#8807F7"/>
<path d="M261.343 167.64C261.301 168.764 257.674 169.545 253.246 169.387C248.818 169.228 245.255 168.189 245.297 167.064C245.339 165.94 248.96 165.164 253.394 165.323C257.828 165.481 261.38 166.521 261.343 167.64Z" fill="#8807F7"/>
<path d="M245.386 165.047L245.312 167.078L261.358 167.655L261.431 165.624L245.386 165.047Z" fill="#8807F7"/>
<path d="M261.436 165.586C261.394 166.711 257.768 167.492 253.34 167.333C248.912 167.175 245.349 166.135 245.391 165.011C245.433 163.887 249.054 163.111 253.482 163.269C257.911 163.428 261.473 164.488 261.436 165.586Z" fill="#8807F7"/>
<path opacity="0.4" d="M261.436 165.586C261.394 166.711 257.768 167.492 253.34 167.333C248.912 167.175 245.349 166.135 245.391 165.011C245.433 163.887 249.054 163.111 253.482 163.269C257.911 163.428 261.473 164.488 261.436 165.586Z" fill="white"/>
<path d="M260.412 165.497C260.405 165.567 260.375 165.634 260.327 165.687C259.842 164.99 256.949 164.372 253.466 164.246C249.982 164.119 247.021 164.525 246.498 165.191C246.452 165.134 246.428 165.063 246.43 164.99C246.43 164.23 249.597 163.718 253.481 163.855C257.366 163.992 260.438 164.737 260.412 165.497Z" fill="#8807F7"/>
<path opacity="0.4" d="M260.412 165.497C260.405 165.567 260.375 165.634 260.327 165.687C259.842 164.99 256.949 164.372 253.466 164.246C249.982 164.119 247.021 164.525 246.498 165.191C246.452 165.134 246.428 165.063 246.43 164.99C246.43 164.23 249.597 163.718 253.481 163.855C257.366 163.992 260.438 164.737 260.412 165.497Z" fill="#8807F7"/>
<path opacity="0.4" d="M260.305 165.687C259.777 166.352 256.843 166.743 253.338 166.632C249.833 166.521 246.93 165.893 246.477 165.191C247.004 164.526 249.928 164.135 253.444 164.246C256.959 164.357 259.82 164.99 260.305 165.687Z" fill="#8807F7"/>
<path d="M263.272 164.705C263.23 165.829 259.604 166.61 255.176 166.452C250.747 166.294 247.185 165.254 247.227 164.13C247.269 163.005 250.89 162.229 255.324 162.388C259.757 162.546 263.309 163.586 263.272 164.705Z" fill="#8807F7"/>
<path d="M247.276 162.089L247.203 164.119L263.249 164.694L263.322 162.663L247.276 162.089Z" fill="#8807F7"/>
<path d="M263.337 162.673C263.301 163.797 259.674 164.578 255.246 164.42C250.818 164.262 247.255 163.222 247.297 162.098C247.339 160.973 250.96 160.197 255.389 160.356C259.817 160.514 263.38 161.554 263.337 162.673Z" fill="#8807F7"/>
<path opacity="0.4" d="M263.337 162.673C263.301 163.797 259.674 164.578 255.246 164.42C250.818 164.262 247.255 163.222 247.297 162.098C247.339 160.973 250.96 160.197 255.389 160.356C259.817 160.514 263.38 161.554 263.337 162.673Z" fill="white"/>
<path d="M262.31 162.562C262.303 162.633 262.274 162.7 262.226 162.752C261.74 162.056 258.848 161.438 255.364 161.311C251.88 161.185 248.919 161.591 248.397 162.256C248.351 162.2 248.326 162.128 248.328 162.056C248.355 161.296 251.495 160.784 255.38 160.921C259.264 161.058 262.363 161.802 262.31 162.562Z" fill="#8807F7"/>
<path opacity="0.4" d="M262.31 162.562C262.303 162.633 262.274 162.7 262.226 162.752C261.74 162.056 258.848 161.438 255.364 161.311C251.88 161.185 248.919 161.591 248.397 162.256C248.351 162.2 248.326 162.128 248.328 162.056C248.355 161.296 251.495 160.784 255.38 160.921C259.264 161.058 262.363 161.802 262.31 162.562Z" fill="#8807F7"/>
<path opacity="0.4" d="M262.243 162.753C261.715 163.418 258.78 163.808 255.276 163.697C251.771 163.587 248.868 162.958 248.414 162.256C248.942 161.591 251.866 161.201 255.381 161.312C258.896 161.423 261.757 162.056 262.243 162.753Z" fill="#8807F7"/>
<path d="M199.563 172.031C199.515 173.156 203.062 174.217 207.48 174.407C211.898 174.597 215.535 173.837 215.582 172.712C215.63 171.588 212.083 170.527 207.665 170.342C203.247 170.158 199.595 170.912 199.563 172.031Z" fill="#8807F7"/>
<path d="M199.633 169.992L199.547 172.023L215.589 172.703L215.675 170.673L199.633 169.992Z" fill="#8807F7"/>
<path d="M199.649 169.999C199.601 171.123 203.154 172.184 207.566 172.374C211.979 172.564 215.626 171.804 215.673 170.68C215.721 169.555 212.169 168.495 207.756 168.31C203.344 168.125 199.696 168.88 199.649 169.999Z" fill="#8807F7"/>
<path opacity="0.4" d="M199.649 169.999C199.601 171.123 203.154 172.184 207.566 172.374C211.979 172.564 215.626 171.804 215.673 170.68C215.721 169.555 212.169 168.495 207.756 168.31C203.344 168.125 199.696 168.88 199.649 169.999Z" fill="white"/>
<path d="M200.664 169.967C200.661 170.038 200.686 170.108 200.733 170.162C201.261 169.503 204.201 169.107 207.705 169.265C211.21 169.423 214.108 170.051 214.567 170.753C214.615 170.699 214.645 170.631 214.651 170.558C214.683 169.798 211.579 169.038 207.711 168.874C203.842 168.711 200.696 169.207 200.664 169.967Z" fill="#8807F7"/>
<path opacity="0.4" d="M200.664 169.967C200.661 170.038 200.686 170.108 200.733 170.162C201.261 169.503 204.201 169.107 207.705 169.265C211.21 169.423 214.108 170.051 214.567 170.753C214.615 170.699 214.645 170.631 214.651 170.558C214.683 169.798 211.579 169.038 207.711 168.874C203.842 168.711 200.696 169.207 200.664 169.967Z" fill="#8807F7"/>
<path opacity="0.4" d="M200.734 170.162C201.209 170.87 204.102 171.503 207.596 171.651C211.09 171.798 214.041 171.413 214.568 170.753C214.099 170.051 211.211 169.418 207.707 169.265C204.202 169.112 201.267 169.502 200.734 170.162Z" fill="#8807F7"/>
<path d="M197.86 168.954C197.812 170.078 201.365 171.139 205.777 171.329C210.19 171.519 213.837 170.759 213.884 169.635C213.932 168.51 210.38 167.45 205.967 167.265C201.555 167.08 197.907 167.835 197.86 168.954Z" fill="#8807F7"/>
<path d="M197.946 166.931L197.859 168.961L213.901 169.642L213.987 167.612L197.946 166.931Z" fill="#8807F7"/>
<path d="M197.954 166.922C197.906 168.046 201.458 169.107 205.871 169.297C210.283 169.487 213.93 168.727 213.978 167.603C214.025 166.478 210.473 165.423 206.061 165.233C201.648 165.043 197.985 165.803 197.954 166.922Z" fill="#8807F7"/>
<path opacity="0.4" d="M197.954 166.922C197.906 168.046 201.458 169.107 205.871 169.297C210.283 169.487 213.93 168.727 213.978 167.603C214.025 166.478 210.473 165.423 206.061 165.233C201.648 165.043 197.985 165.803 197.954 166.922Z" fill="white"/>
<path d="M198.977 166.89C198.979 166.962 199.003 167.032 199.045 167.09C199.573 166.431 202.518 166.035 206.018 166.188C209.517 166.341 212.425 166.974 212.879 167.676C212.931 167.624 212.963 167.555 212.969 167.481C213.001 166.721 209.897 165.961 206.028 165.797C202.159 165.634 199.014 166.114 198.977 166.89Z" fill="#8807F7"/>
<path opacity="0.4" d="M198.977 166.89C198.979 166.962 199.003 167.032 199.045 167.09C199.573 166.431 202.518 166.035 206.018 166.188C209.517 166.341 212.425 166.974 212.879 167.676C212.931 167.624 212.963 167.555 212.969 167.481C213.001 166.721 209.897 165.961 206.028 165.797C202.159 165.634 199.014 166.114 198.977 166.89Z" fill="#8807F7"/>
<path opacity="0.4" d="M199.055 167.091C199.535 167.792 202.422 168.426 205.916 168.574C209.41 168.721 212.366 168.336 212.889 167.676C212.424 166.974 209.532 166.341 206.027 166.188C202.522 166.035 199.583 166.431 199.055 167.091Z" fill="#8807F7"/>
<path d="M198.079 165.249C198.031 166.373 201.583 167.434 205.996 167.624C210.408 167.814 214.055 167.054 214.103 165.93C214.15 164.806 210.598 163.745 206.186 163.56C201.773 163.375 198.126 164.13 198.079 165.249Z" fill="#8807F7"/>
<path d="M198.164 163.216L198.078 165.246L214.12 165.927L214.206 163.897L198.164 163.216Z" fill="#8807F7"/>
<path d="M198.165 163.216C198.117 164.34 201.669 165.401 206.082 165.591C210.494 165.781 214.141 165.021 214.189 163.897C214.236 162.773 210.684 161.712 206.272 161.527C201.859 161.342 198.212 162.097 198.165 163.216Z" fill="#8807F7"/>
<path opacity="0.4" d="M198.165 163.216C198.117 164.34 201.669 165.401 206.082 165.591C210.494 165.781 214.141 165.021 214.189 163.897C214.236 162.773 210.684 161.712 206.272 161.527C201.859 161.342 198.212 162.097 198.165 163.216Z" fill="white"/>
<path d="M199.188 163.185C199.185 163.257 199.209 163.327 199.256 163.381C199.784 162.726 202.724 162.325 206.229 162.483C209.733 162.642 212.631 163.27 213.09 163.972C213.138 163.917 213.168 163.849 213.175 163.776C213.206 163.016 210.103 162.256 206.234 162.093C202.365 161.929 199.219 162.42 199.188 163.185Z" fill="#8807F7"/>
<path opacity="0.4" d="M199.188 163.185C199.185 163.257 199.209 163.327 199.256 163.381C199.784 162.726 202.724 162.325 206.229 162.483C209.733 162.642 212.631 163.27 213.09 163.972C213.138 163.917 213.168 163.849 213.175 163.776C213.206 163.016 210.103 162.256 206.234 162.093C202.365 161.929 199.219 162.42 199.188 163.185Z" fill="#8807F7"/>
<path opacity="0.4" d="M199.258 163.38C199.733 164.088 202.625 164.721 206.119 164.869C209.614 165.017 212.564 164.631 213.092 163.971C212.622 163.269 209.735 162.636 206.23 162.483C202.726 162.33 199.791 162.726 199.258 163.38Z" fill="#8807F7"/>
<path d="M196.391 162.171C196.344 163.296 199.896 164.357 204.308 164.547C208.721 164.737 212.368 163.977 212.415 162.852C212.463 161.728 208.911 160.672 204.498 160.482C200.086 160.292 196.433 161.052 196.391 162.171Z" fill="#8807F7"/>
<path d="M196.477 160.134L196.391 162.164L212.432 162.845L212.518 160.815L196.477 160.134Z" fill="#8807F7"/>
<path d="M196.485 160.14C196.437 161.264 199.99 162.325 204.402 162.515C208.815 162.705 212.462 161.945 212.509 160.821C212.557 159.696 209.005 158.641 204.592 158.451C200.18 158.261 196.532 159.021 196.485 160.14Z" fill="#8807F7"/>
<path opacity="0.4" d="M196.485 160.14C196.437 161.264 199.99 162.325 204.402 162.515C208.815 162.705 212.462 161.945 212.509 160.821C212.557 159.696 209.005 158.641 204.592 158.451C200.18 158.261 196.532 159.021 196.485 160.14Z" fill="white"/>
<path d="M197.516 160.108C197.514 160.18 197.536 160.251 197.579 160.309C198.107 159.649 201.052 159.253 204.557 159.411C208.061 159.57 210.959 160.193 211.418 160.895C211.467 160.841 211.497 160.772 211.503 160.699C211.534 159.945 208.431 159.179 204.562 159.016C200.693 158.852 197.547 159.348 197.516 160.108Z" fill="#8807F7"/>
<path opacity="0.4" d="M197.516 160.108C197.514 160.18 197.536 160.251 197.579 160.309C198.107 159.649 201.052 159.253 204.557 159.411C208.061 159.57 210.959 160.193 211.418 160.895C211.467 160.841 211.497 160.772 211.503 160.699C211.534 159.945 208.431 159.179 204.562 159.016C200.693 158.852 197.547 159.348 197.516 160.108Z" fill="#8807F7"/>
<path opacity="0.4" d="M197.57 160.308C198.051 161.01 200.938 161.644 204.432 161.791C207.926 161.939 210.882 161.554 211.41 160.894C210.94 160.192 208.047 159.559 204.548 159.411C201.049 159.263 198.109 159.649 197.57 160.308Z" fill="#8807F7"/>
<path d="M198.977 159.564C198.93 160.689 202.482 161.75 206.894 161.94C211.307 162.13 214.954 161.37 215.001 160.245C215.049 159.121 211.497 158.065 207.084 157.875C202.672 157.685 199.046 158.445 198.977 159.564Z" fill="#8807F7"/>
<path d="M199.063 157.534L198.977 159.565L215.018 160.245L215.104 158.215L199.063 157.534Z" fill="#8807F7"/>
<path d="M199.055 157.532C199.008 158.656 202.56 159.717 206.972 159.907C211.385 160.097 215.032 159.337 215.08 158.213C215.127 157.088 211.575 156.033 207.162 155.843C202.75 155.653 199.118 156.413 199.055 157.532Z" fill="#8807F7"/>
<path opacity="0.4" d="M199.055 157.532C199.008 158.656 202.56 159.717 206.972 159.907C211.385 160.097 215.032 159.337 215.08 158.213C215.127 157.088 211.575 156.033 207.162 155.843C202.75 155.653 199.118 156.413 199.055 157.532Z" fill="white"/>
<path d="M200.094 157.5C200.094 157.573 200.118 157.643 200.162 157.701C200.69 157.041 203.63 156.645 207.135 156.804C210.639 156.962 213.537 157.585 213.996 158.287C214.023 158.261 214.044 158.231 214.058 158.198C214.073 158.164 214.08 158.128 214.081 158.091C214.112 157.337 211.009 156.571 207.14 156.408C203.271 156.244 200.094 156.74 200.094 157.5Z" fill="#8807F7"/>
<path opacity="0.4" d="M200.094 157.5C200.094 157.573 200.118 157.643 200.162 157.701C200.69 157.041 203.63 156.645 207.135 156.804C210.639 156.962 213.537 157.585 213.996 158.287C214.023 158.261 214.044 158.231 214.058 158.198C214.073 158.164 214.08 158.128 214.081 158.091C214.112 157.337 211.009 156.571 207.14 156.408C203.271 156.244 200.094 156.74 200.094 157.5Z" fill="#8807F7"/>
<path opacity="0.4" d="M200.164 157.701C200.644 158.403 203.532 159.037 207.026 159.184C210.52 159.332 213.47 158.947 213.998 158.287C213.528 157.585 210.641 156.952 207.136 156.804C203.632 156.656 200.702 157.041 200.164 157.701Z" fill="#8807F7"/>
<path d="M197.29 156.492C197.242 157.611 200.794 158.672 205.207 158.862C209.619 159.052 213.261 158.292 213.314 157.173C213.367 156.054 209.809 154.988 205.397 154.798C200.984 154.608 197.337 155.368 197.29 156.492Z" fill="#8807F7"/>
<path d="M197.375 154.452L197.289 156.482L213.331 157.163L213.417 155.133L197.375 154.452Z" fill="#8807F7"/>
<path d="M197.383 154.46C197.336 155.579 200.888 156.64 205.3 156.83C209.713 157.02 213.36 156.26 213.408 155.141C213.455 154.022 209.903 152.956 205.49 152.766C201.078 152.576 197.431 153.336 197.383 154.46Z" fill="#8807F7"/>
<path opacity="0.4" d="M197.383 154.46C197.336 155.579 200.888 156.64 205.3 156.83C209.713 157.02 213.36 156.26 213.408 155.141C213.455 154.022 209.903 152.956 205.49 152.766C201.078 152.576 197.431 153.336 197.383 154.46Z" fill="white"/>
<path d="M198.399 154.423C198.395 154.496 198.42 154.568 198.467 154.623C198.995 153.964 201.935 153.568 205.44 153.726C208.944 153.885 211.842 154.507 212.301 155.209C212.349 155.157 212.379 155.09 212.386 155.019C212.417 154.259 209.314 153.494 205.445 153.33C201.576 153.167 198.43 153.663 198.399 154.423Z" fill="#8807F7"/>
<path opacity="0.4" d="M198.399 154.423C198.395 154.496 198.42 154.568 198.467 154.623C198.995 153.964 201.935 153.568 205.44 153.726C208.944 153.885 211.842 154.507 212.301 155.209C212.349 155.157 212.379 155.09 212.386 155.019C212.417 154.259 209.314 153.494 205.445 153.33C201.576 153.167 198.43 153.663 198.399 154.423Z" fill="#8807F7"/>
<path opacity="0.4" d="M198.469 154.624C198.944 155.326 201.836 155.959 205.33 156.107C208.824 156.255 211.775 155.869 212.303 155.21C211.833 154.508 208.946 153.874 205.441 153.727C201.936 153.579 199.002 153.975 198.469 154.624Z" fill="#8807F7"/>
<path d="M215.018 154.307C215.065 155.426 211.513 156.492 207.101 156.677C202.688 156.862 199.052 156.086 198.978 154.988C198.904 153.89 202.477 152.803 206.895 152.613C211.313 152.423 214.965 153.183 215.018 154.307Z" fill="#8807F7"/>
<path d="M214.564 152.805L198.508 153.447L198.589 155.479L214.645 154.837L214.564 152.805Z" fill="#8807F7"/>
<path d="M214.915 152.275C214.963 153.394 211.411 154.46 206.998 154.645C202.586 154.83 198.939 154.08 198.891 152.956C198.844 151.832 202.396 150.771 206.808 150.581C211.221 150.391 214.873 151.151 214.915 152.275Z" fill="#8807F7"/>
<path opacity="0.4" d="M214.915 152.275C214.963 153.394 211.411 154.46 206.998 154.645C202.586 154.83 198.939 154.08 198.891 152.956C198.844 151.832 202.396 150.771 206.808 150.581C211.221 150.391 214.873 151.151 214.915 152.275Z" fill="white"/>
<path d="M213.901 152.238C213.906 152.311 213.881 152.383 213.833 152.438C213.305 151.779 210.365 151.383 206.86 151.541C203.356 151.7 200.458 152.322 199.999 153.03C199.952 152.975 199.922 152.906 199.914 152.834C199.883 152.074 202.986 151.314 206.855 151.151C210.724 150.987 213.87 151.478 213.901 152.238Z" fill="#8807F7"/>
<path opacity="0.4" d="M213.901 152.238C213.906 152.311 213.881 152.383 213.833 152.438C213.305 151.779 210.365 151.383 206.86 151.541C203.356 151.7 200.458 152.322 199.999 153.03C199.952 152.975 199.922 152.906 199.914 152.834C199.883 152.074 202.986 151.314 206.855 151.151C210.724 150.987 213.87 151.478 213.901 152.238Z" fill="#8807F7"/>
<path opacity="0.4" d="M213.834 152.438C213.359 153.14 210.467 153.774 206.972 153.927C203.478 154.08 200.528 153.689 200 153.03C200.47 152.322 203.357 151.689 206.862 151.541C210.366 151.393 213.306 151.779 213.834 152.438Z" fill="#8807F7"/>
<path d="M216.689 151.23C216.736 152.354 213.184 153.415 208.772 153.6C204.359 153.785 200.712 153.035 200.665 151.911C200.617 150.787 204.169 149.726 208.582 149.541C212.994 149.356 216.641 150.106 216.689 151.23Z" fill="#8807F7"/>
<path d="M216.604 149.193L200.562 149.874L200.649 151.904L216.69 151.223L216.604 149.193Z" fill="#8807F7"/>
<path d="M216.598 149.224C216.645 150.349 213.098 151.41 208.681 151.6C204.263 151.79 200.626 151.03 200.579 149.905C200.531 148.781 204.078 147.72 208.496 147.535C212.914 147.351 216.55 148.074 216.598 149.224Z" fill="#8807F7"/>
<path opacity="0.4" d="M216.598 149.224C216.645 150.349 213.098 151.41 208.681 151.6C204.263 151.79 200.626 151.03 200.579 149.905C200.531 148.781 204.078 147.72 208.496 147.535C212.914 147.351 216.55 148.074 216.598 149.224Z" fill="white"/>
<path d="M215.581 149.161C215.58 149.234 215.556 149.304 215.512 149.362C214.985 148.702 212.039 148.306 208.54 148.465C205.041 148.623 202.132 149.251 201.679 149.953C201.626 149.901 201.596 149.831 201.594 149.758C201.557 148.998 204.666 148.238 208.53 148.074C212.393 147.91 215.544 148.401 215.581 149.161Z" fill="#8807F7"/>
<path opacity="0.4" d="M215.581 149.161C215.58 149.234 215.556 149.304 215.512 149.362C214.985 148.702 212.039 148.306 208.54 148.465C205.041 148.623 202.132 149.251 201.679 149.953C201.626 149.901 201.596 149.831 201.594 149.758C201.557 148.998 204.666 148.238 208.53 148.074C212.393 147.91 215.544 148.401 215.581 149.161Z" fill="#8807F7"/>
<path opacity="0.4" d="M215.514 149.361C215.033 150.063 212.146 150.702 208.652 150.85C205.158 150.997 202.202 150.612 201.68 149.952C202.144 149.25 205.037 148.612 208.541 148.464C212.046 148.316 214.975 148.696 215.514 149.361Z" fill="#8807F7"/>
<path d="M216.449 147.525C216.497 148.644 212.95 149.71 208.532 149.895C204.114 150.079 200.478 149.33 200.43 148.206C200.383 147.081 203.93 146.02 208.347 145.83C212.765 145.64 216.412 146.4 216.449 147.525Z" fill="#8807F7"/>
<path d="M216.385 145.495L200.344 146.176L200.43 148.206L216.472 147.525L216.385 145.495Z" fill="#8807F7"/>
<path d="M216.369 145.493C216.416 146.617 212.864 147.678 208.451 147.863C204.039 148.048 200.392 147.298 200.344 146.174C200.297 145.05 203.849 143.989 208.261 143.804C212.674 143.619 216.321 144.369 216.369 145.493Z" fill="#8807F7"/>
<path opacity="0.4" d="M216.369 145.493C216.416 146.617 212.864 147.678 208.451 147.863C204.039 148.048 200.392 147.298 200.344 146.174C200.297 145.05 203.849 143.989 208.261 143.804C212.674 143.619 216.321 144.369 216.369 145.493Z" fill="white"/>
<path d="M215.354 145.456C215.359 145.529 215.334 145.601 215.286 145.656C214.758 144.996 211.818 144.601 208.313 144.759C204.809 144.917 201.911 145.545 201.452 146.247C201.405 146.192 201.375 146.124 201.367 146.052C201.336 145.292 204.439 144.532 208.308 144.368C212.177 144.205 215.323 144.696 215.354 145.456Z" fill="#8807F7"/>
<path opacity="0.4" d="M215.354 145.456C215.359 145.529 215.334 145.601 215.286 145.656C214.758 144.996 211.818 144.601 208.313 144.759C204.809 144.917 201.911 145.545 201.452 146.247C201.405 146.192 201.375 146.124 201.367 146.052C201.336 145.292 204.439 144.532 208.308 144.368C212.177 144.205 215.323 144.696 215.354 145.456Z" fill="#8807F7"/>
<path opacity="0.4" d="M215.279 145.657C214.804 146.359 211.912 146.997 208.418 147.145C204.924 147.293 201.973 146.908 201.445 146.248C201.915 145.546 204.802 144.907 208.307 144.759C211.812 144.612 214.746 145.002 215.279 145.657Z" fill="#8807F7"/>
<path d="M218.165 144.474C218.213 145.598 214.661 146.659 210.248 146.849C205.836 147.039 202.189 146.279 202.141 145.155C202.094 144.03 205.646 142.97 210.058 142.785C214.471 142.6 218.118 143.323 218.165 144.474Z" fill="#8807F7"/>
<path d="M218.065 142.423L202.023 143.104L202.11 145.134L218.151 144.453L218.065 142.423Z" fill="#8807F7"/>
<path d="M218.064 142.416C218.111 143.54 214.559 144.601 210.147 144.791C205.734 144.981 202.087 144.221 202.04 143.097C201.992 141.973 205.544 140.912 209.957 140.727C214.369 140.542 218.038 141.307 218.064 142.416Z" fill="#8807F7"/>
<path opacity="0.4" d="M218.064 142.416C218.111 143.54 214.559 144.601 210.147 144.791C205.734 144.981 202.087 144.221 202.04 143.097C201.992 141.973 205.544 140.912 209.957 140.727C214.369 140.542 218.038 141.307 218.064 142.416Z" fill="white"/>
<path d="M217.032 142.363C217.03 142.434 217.006 142.502 216.963 142.558C216.435 141.899 213.49 141.503 209.991 141.661C206.491 141.819 203.583 142.447 203.129 143.149C203.077 143.097 203.046 143.028 203.039 142.954C203.008 142.194 206.111 141.434 209.98 141.27C213.849 141.107 216.995 141.624 217.032 142.363Z" fill="#8807F7"/>
<path opacity="0.4" d="M217.032 142.363C217.03 142.434 217.006 142.502 216.963 142.558C216.435 141.899 213.49 141.503 209.991 141.661C206.491 141.819 203.583 142.447 203.129 143.149C203.077 143.097 203.046 143.028 203.039 142.954C203.008 142.194 206.111 141.434 209.98 141.27C213.849 141.107 216.995 141.624 217.032 142.363Z" fill="#8807F7"/>
<path opacity="0.4" d="M216.975 142.579C216.494 143.287 213.607 143.92 210.113 144.068C206.619 144.216 203.663 143.83 203.141 143.171C203.605 142.469 206.498 141.83 210.002 141.682C213.507 141.534 216.447 141.92 216.975 142.579Z" fill="#8807F7"/>
<path d="M215.576 141.835C215.624 142.96 212.072 144.02 207.659 144.21C203.247 144.4 199.562 143.646 199.562 142.521C199.562 141.397 203.067 140.336 207.48 140.152C211.892 139.967 215.529 140.722 215.576 141.835Z" fill="#8807F7"/>
<path d="M215.51 139.806L199.469 140.487L199.555 142.517L215.597 141.836L215.51 139.806Z" fill="#8807F7"/>
<path d="M215.494 139.808C215.541 140.932 211.989 141.993 207.576 142.183C203.164 142.373 199.517 141.613 199.469 140.489C199.422 139.364 202.974 138.304 207.386 138.119C211.799 137.934 215.446 138.668 215.494 139.808Z" fill="#8807F7"/>
<path opacity="0.4" d="M215.494 139.808C215.541 140.932 211.989 141.993 207.576 142.183C203.164 142.373 199.517 141.613 199.469 140.489C199.422 139.364 202.974 138.304 207.386 138.119C211.799 137.934 215.446 138.668 215.494 139.808Z" fill="white"/>
<path d="M214.472 139.776C214.475 139.848 214.45 139.918 214.403 139.972C213.875 139.312 210.935 138.916 207.431 139.074C203.926 139.233 201.028 139.861 200.569 140.563C200.519 140.51 200.489 140.44 200.485 140.367C200.453 139.607 203.556 138.847 207.425 138.684C211.294 138.52 214.44 139.016 214.472 139.776Z" fill="#8807F7"/>
<path opacity="0.4" d="M214.472 139.776C214.475 139.848 214.45 139.918 214.403 139.972C213.875 139.312 210.935 138.916 207.431 139.074C203.926 139.233 201.028 139.861 200.569 140.563C200.519 140.51 200.489 140.44 200.485 140.367C200.453 139.607 203.556 138.847 207.425 138.684C211.294 138.52 214.44 139.016 214.472 139.776Z" fill="#8807F7"/>
<path opacity="0.4" d="M214.396 139.971C213.916 140.679 211.029 141.312 207.535 141.46C204.041 141.608 201.09 141.222 200.562 140.563C201.032 139.861 203.919 139.227 207.424 139.074C210.929 138.921 213.858 139.312 214.396 139.971Z" fill="#8807F7"/>
<path d="M217.27 138.763C217.317 139.887 213.765 140.948 209.352 141.138C204.94 141.328 201.298 140.568 201.25 139.444C201.203 138.32 204.75 137.259 209.168 137.074C213.585 136.889 217.217 137.644 217.27 138.763Z" fill="#8807F7"/>
<path d="M217.198 136.739L201.156 137.42L201.242 139.45L217.284 138.769L217.198 136.739Z" fill="#8807F7"/>
<path d="M217.181 136.731C217.229 137.855 213.676 138.916 209.264 139.106C204.851 139.296 201.204 138.536 201.157 137.412C201.109 136.288 204.661 135.232 209.074 135.042C213.486 134.852 217.134 135.612 217.181 136.731Z" fill="#8807F7"/>
<path opacity="0.4" d="M217.181 136.731C217.229 137.855 213.676 138.916 209.264 139.106C204.851 139.296 201.204 138.536 201.157 137.412C201.109 136.288 204.661 135.232 209.074 135.042C213.486 134.852 217.134 135.612 217.181 136.731Z" fill="white"/>
<path d="M216.167 136.699C216.169 136.772 216.145 136.844 216.098 136.9C215.571 136.24 212.631 135.844 209.126 135.997C205.621 136.151 202.724 136.784 202.264 137.486C202.216 137.431 202.187 137.363 202.18 137.291C202.148 136.531 205.252 135.771 209.121 135.607C212.99 135.443 216.135 135.939 216.167 136.699Z" fill="#8807F7"/>
<path opacity="0.4" d="M216.167 136.699C216.169 136.772 216.145 136.844 216.098 136.9C215.571 136.24 212.631 135.844 209.126 135.997C205.621 136.151 202.724 136.784 202.264 137.486C202.216 137.431 202.187 137.363 202.18 137.291C202.148 136.531 205.252 135.771 209.121 135.607C212.99 135.443 216.135 135.939 216.167 136.699Z" fill="#8807F7"/>
<path opacity="0.4" d="M216.092 136.9C215.617 137.602 212.724 138.235 209.23 138.383C205.736 138.53 202.786 138.145 202.258 137.485C202.728 136.783 205.615 136.15 209.119 135.997C212.624 135.844 215.559 136.24 216.092 136.9Z" fill="#8807F7"/>
<path d="M210.574 136.464C214.313 135.062 216.208 130.894 214.807 127.154C213.405 123.415 209.237 121.52 205.497 122.922C201.758 124.324 199.863 128.492 201.265 132.231C202.667 135.97 206.835 137.865 210.574 136.464Z" fill="#8807F7"/>
<path d="M214.348 134.736C216.937 131.695 216.57 127.131 213.528 124.543C210.487 121.955 205.923 122.322 203.335 125.363C200.747 128.404 201.114 132.968 204.155 135.556C207.196 138.145 211.76 137.777 214.348 134.736Z" fill="#8807F7"/>
<path opacity="0.4" d="M214.348 134.736C216.937 131.695 216.57 127.131 213.528 124.543C210.487 121.955 205.923 122.322 203.335 125.363C200.747 128.404 201.114 132.968 204.155 135.556C207.196 138.145 211.76 137.777 214.348 134.736Z" fill="white"/>
<path d="M213.764 132.277C213.32 133.25 212.598 134.07 211.689 134.634C210.779 135.197 209.723 135.478 208.654 135.442C207.585 135.405 206.551 135.052 205.682 134.428C204.813 133.803 204.149 132.935 203.774 131.933C203.398 130.932 203.328 129.841 203.573 128.8C203.817 127.758 204.364 126.812 205.146 126.082C205.928 125.351 206.908 124.869 207.964 124.696C209.02 124.523 210.103 124.666 211.077 125.109C212.383 125.704 213.4 126.793 213.904 128.137C214.407 129.481 214.357 130.97 213.764 132.277Z" fill="#8807F7"/>
<path d="M277.001 170.981C276.837 171.641 274.599 171.646 272.003 170.981C269.406 170.316 267.432 169.266 267.595 168.611C267.759 167.957 270.002 167.946 272.599 168.611C275.196 169.276 277.159 170.337 277.001 170.981Z" fill="#8807F7"/>
<path d="M267.893 167.438L267.594 168.631L276.999 170.987L277.298 169.794L267.893 167.438Z" fill="#8807F7"/>
<path d="M277.29 169.809C277.121 170.469 274.883 170.474 272.286 169.809C269.69 169.144 267.721 168.099 267.885 167.439C268.048 166.779 270.286 166.774 272.883 167.439C275.48 168.104 277.454 169.133 277.29 169.809Z" fill="#8807F7"/>
<path opacity="0.4" d="M277.29 169.809C277.121 170.469 274.883 170.474 272.286 169.809C269.69 169.144 267.721 168.099 267.885 167.439C268.048 166.779 270.286 166.774 272.883 167.439C275.48 168.104 277.454 169.133 277.29 169.809Z" fill="white"/>
<path d="M276.715 169.593C276.71 169.614 276.701 169.635 276.689 169.653C276.676 169.671 276.66 169.687 276.641 169.698C276.446 169.223 274.815 168.495 272.761 167.983C270.708 167.471 268.919 167.339 268.539 167.666C268.529 167.625 268.529 167.581 268.539 167.54C268.655 167.091 270.582 167.186 272.851 167.751C275.121 168.316 276.831 169.149 276.715 169.593Z" fill="#8807F7"/>
<path opacity="0.4" d="M276.715 169.593C276.71 169.614 276.701 169.635 276.689 169.653C276.676 169.671 276.66 169.687 276.641 169.698C276.446 169.223 274.815 168.495 272.761 167.983C270.708 167.471 268.919 167.339 268.539 167.666C268.529 167.625 268.529 167.581 268.539 167.54C268.655 167.091 270.582 167.186 272.851 167.751C275.121 168.316 276.831 169.149 276.715 169.593Z" fill="#8807F7"/>
<path opacity="0.4" d="M276.631 169.698C276.235 170.02 274.456 169.893 272.408 169.381C270.36 168.869 268.713 168.136 268.523 167.666C268.919 167.339 270.698 167.465 272.746 167.983C274.794 168.5 276.441 169.223 276.631 169.698Z" fill="#8807F7"/>
<path d="M281.506 173.144C281.538 173.82 279.395 174.464 276.713 174.575C274.032 174.685 271.847 174.231 271.821 173.556C271.794 172.88 273.932 172.236 276.613 172.12C279.294 172.004 281.48 172.447 281.506 173.144Z" fill="#8807F7"/>
<path d="M281.445 171.927L271.758 172.338L271.81 173.567L281.497 173.156L281.445 171.927Z" fill="#8807F7"/>
<path d="M281.467 171.92C281.499 172.601 279.356 173.24 276.68 173.356C274.004 173.472 271.813 173.013 271.782 172.332C271.75 171.651 273.893 171.012 276.574 170.901C279.255 170.791 281.441 171.239 281.467 171.92Z" fill="#8807F7"/>
<path opacity="0.4" d="M281.467 171.92C281.499 172.601 279.356 173.24 276.68 173.356C274.004 173.472 271.813 173.013 271.782 172.332C271.75 171.651 273.893 171.012 276.574 170.901C279.255 170.791 281.441 171.239 281.467 171.92Z" fill="white"/>
<path d="M280.841 171.92C280.843 171.942 280.841 171.965 280.833 171.986C280.826 172.007 280.814 172.026 280.799 172.042C280.477 171.646 278.688 171.408 276.576 171.514C274.465 171.619 272.708 171.989 272.423 172.411C272.393 172.379 272.376 172.338 272.375 172.295C272.375 171.836 274.228 171.377 276.566 171.276C278.904 171.176 280.841 171.435 280.841 171.92Z" fill="#8807F7"/>
<path opacity="0.4" d="M280.841 171.92C280.843 171.942 280.841 171.965 280.833 171.986C280.826 172.007 280.814 172.026 280.799 172.042C280.477 171.646 278.688 171.408 276.576 171.514C274.465 171.619 272.708 171.989 272.423 172.411C272.393 172.379 272.376 172.338 272.375 172.295C272.375 171.836 274.228 171.377 276.566 171.276C278.904 171.176 280.841 171.435 280.841 171.92Z" fill="#8807F7"/>
<path opacity="0.4" d="M280.801 172.015C280.516 172.438 278.769 172.823 276.652 172.913C274.536 173.002 272.762 172.77 272.43 172.385C272.715 171.963 274.462 171.577 276.584 171.488C278.705 171.398 280.479 171.619 280.801 172.015Z" fill="#8807F7"/>
<path d="M276.425 170.726C278.617 167.387 277.687 162.904 274.348 160.713C271.009 158.521 266.526 159.451 264.335 162.79C262.144 166.129 263.074 170.612 266.412 172.803C269.751 174.995 274.234 174.065 276.425 170.726Z" fill="#8807F7"/>
<path d="M276.419 172.173C275.467 173.241 274.22 174.003 272.836 174.362C271.451 174.721 269.991 174.662 268.641 174.191C267.29 173.72 266.109 172.86 265.248 171.718C264.386 170.576 263.883 169.205 263.801 167.777C263.719 166.349 264.062 164.929 264.788 163.696C265.513 162.463 266.587 161.473 267.875 160.851C269.163 160.229 270.606 160.003 272.023 160.201C273.439 160.4 274.765 161.014 275.833 161.966C277.264 163.242 278.129 165.034 278.239 166.948C278.349 168.862 277.694 170.742 276.419 172.173Z" fill="#8807F7"/>
<path opacity="0.4" d="M276.419 172.173C275.467 173.241 274.22 174.003 272.836 174.362C271.451 174.721 269.991 174.662 268.641 174.191C267.29 173.72 266.109 172.86 265.248 171.718C264.386 170.576 263.883 169.205 263.801 167.777C263.719 166.349 264.062 164.929 264.788 163.696C265.513 162.463 266.587 161.473 267.875 160.851C269.163 160.229 270.606 160.003 272.023 160.201C273.439 160.4 274.765 161.014 275.833 161.966C277.264 163.242 278.129 165.034 278.239 166.948C278.349 168.862 277.694 170.742 276.419 172.173Z" fill="white"/>
<path d="M275.053 170.965C274.34 171.765 273.406 172.335 272.369 172.604C271.333 172.873 270.239 172.829 269.228 172.476C268.216 172.124 267.332 171.479 266.686 170.624C266.041 169.769 265.664 168.742 265.603 167.672C265.541 166.603 265.799 165.539 266.342 164.616C266.885 163.693 267.69 162.951 268.655 162.486C269.62 162.02 270.701 161.851 271.762 162C272.822 162.149 273.815 162.609 274.615 163.322C275.146 163.795 275.578 164.368 275.888 165.008C276.197 165.648 276.377 166.343 276.418 167.052C276.458 167.762 276.359 168.473 276.125 169.144C275.89 169.816 275.526 170.434 275.053 170.965Z" fill="#8807F7"/>
<path d="M181.5 173.815C181.474 174.491 183.611 175.135 186.293 175.245C188.974 175.356 191.159 174.902 191.186 174.227C191.212 173.551 189.074 172.907 186.398 172.791C183.722 172.675 181.532 173.134 181.5 173.815Z" fill="#8807F7"/>
<path d="M181.576 172.591L181.523 173.819L191.211 174.231L191.263 173.002L181.576 172.591Z" fill="#8807F7"/>
<path d="M181.547 172.585C181.516 173.266 183.658 173.905 186.34 174.021C189.021 174.137 191.206 173.678 191.233 172.997C191.259 172.316 189.121 171.677 186.44 171.566C183.759 171.455 181.574 171.92 181.547 172.585Z" fill="#8807F7"/>
<path opacity="0.4" d="M181.547 172.585C181.516 173.266 183.658 173.905 186.34 174.021C189.021 174.137 191.206 173.678 191.233 172.997C191.259 172.316 189.121 171.677 186.44 171.566C183.759 171.455 181.574 171.92 181.547 172.585Z" fill="white"/>
<path d="M182.18 172.564C182.18 172.608 182.195 172.651 182.222 172.686C182.544 172.29 184.333 172.052 186.444 172.158C188.556 172.263 190.308 172.633 190.593 173.06C190.623 173.027 190.642 172.984 190.646 172.939C190.646 172.48 188.788 172.02 186.455 171.925C184.122 171.83 182.201 172.105 182.18 172.564Z" fill="#8807F7"/>
<path opacity="0.4" d="M182.18 172.564C182.18 172.608 182.195 172.651 182.222 172.686C182.544 172.29 184.333 172.052 186.444 172.158C188.556 172.263 190.308 172.633 190.593 173.06C190.623 173.027 190.642 172.984 190.646 172.939C190.646 172.48 188.788 172.02 186.455 171.925C184.122 171.83 182.201 172.105 182.18 172.564Z" fill="#8807F7"/>
<path opacity="0.4" d="M182.219 172.686C182.509 173.113 184.251 173.493 186.367 173.583C188.484 173.673 190.263 173.441 190.59 173.055C190.305 172.628 188.563 172.248 186.441 172.153C184.319 172.058 182.541 172.29 182.219 172.686Z" fill="#8807F7"/>
<path d="M180.484 171.958C180.484 172.633 182.596 173.277 185.277 173.388C187.958 173.499 190.143 173.045 190.17 172.369C190.196 171.694 188.058 171.05 185.382 170.934C182.706 170.817 180.516 171.282 180.484 171.958Z" fill="#8807F7"/>
<path d="M180.537 170.717L180.484 171.945L190.172 172.356L190.224 171.128L180.537 170.717Z" fill="#8807F7"/>
<path d="M180.555 170.728C180.555 171.408 182.666 172.047 185.347 172.163C188.029 172.279 190.214 171.82 190.24 171.139C190.266 170.458 188.129 169.82 185.453 169.709C182.777 169.598 180.555 170.052 180.555 170.728Z" fill="#8807F7"/>
<path opacity="0.4" d="M180.555 170.728C180.555 171.408 182.666 172.047 185.347 172.163C188.029 172.279 190.214 171.82 190.24 171.139C190.266 170.458 188.129 169.82 185.453 169.709C182.777 169.598 180.555 170.052 180.555 170.728Z" fill="white"/>
<path d="M181.148 170.706C181.149 170.75 181.164 170.793 181.191 170.828C181.513 170.432 183.302 170.2 185.413 170.3C187.524 170.4 189.277 170.77 189.562 171.197C189.592 171.163 189.61 171.121 189.615 171.076C189.615 170.622 187.757 170.157 185.424 170.062C183.091 169.967 181.17 170.247 181.148 170.706Z" fill="#8807F7"/>
<path opacity="0.4" d="M181.148 170.706C181.149 170.75 181.164 170.793 181.191 170.828C181.513 170.432 183.302 170.2 185.413 170.3C187.524 170.4 189.277 170.77 189.562 171.197C189.592 171.163 189.61 171.121 189.615 171.076C189.615 170.622 187.757 170.157 185.424 170.062C183.091 169.967 181.17 170.247 181.148 170.706Z" fill="#8807F7"/>
<path opacity="0.4" d="M181.195 170.828C181.486 171.255 183.227 171.635 185.344 171.725C187.46 171.815 189.239 171.582 189.566 171.197C189.281 170.77 187.54 170.39 185.418 170.3C183.296 170.21 181.517 170.432 181.195 170.828Z" fill="#8807F7"/>
<path d="M180.617 169.72C180.617 170.395 182.728 171.039 185.41 171.15C188.091 171.261 190.276 170.807 190.303 170.131C190.329 169.456 188.191 168.812 185.515 168.696C182.839 168.58 180.649 169.044 180.617 169.72Z" fill="#8807F7"/>
<path d="M180.654 168.479L180.602 169.707L190.289 170.119L190.341 168.89L180.654 168.479Z" fill="#8807F7"/>
<path d="M180.664 168.489C180.664 169.17 182.775 169.809 185.457 169.925C188.138 170.041 190.323 169.582 190.349 168.901C190.376 168.22 188.238 167.581 185.562 167.47C182.886 167.36 180.696 167.814 180.664 168.489Z" fill="#8807F7"/>
<path opacity="0.4" d="M180.664 168.489C180.664 169.17 182.775 169.809 185.457 169.925C188.138 170.041 190.323 169.582 190.349 168.901C190.376 168.22 188.238 167.581 185.562 167.47C182.886 167.36 180.696 167.814 180.664 168.489Z" fill="white"/>
<path d="M181.289 168.468C181.289 168.512 181.304 168.555 181.331 168.589C181.653 168.194 183.443 167.961 185.554 168.062C187.665 168.162 189.417 168.531 189.702 168.959C189.733 168.925 189.751 168.883 189.755 168.837C189.755 168.384 187.897 167.919 185.564 167.824C183.231 167.729 181.31 168.014 181.289 168.468Z" fill="#8807F7"/>
<path opacity="0.4" d="M181.289 168.468C181.289 168.512 181.304 168.555 181.331 168.589C181.653 168.194 183.443 167.961 185.554 168.062C187.665 168.162 189.417 168.531 189.702 168.959C189.733 168.925 189.751 168.883 189.755 168.837C189.755 168.384 187.897 167.919 185.564 167.824C183.231 167.729 181.31 168.014 181.289 168.468Z" fill="#8807F7"/>
<path opacity="0.4" d="M181.336 168.59C181.626 169.017 183.368 169.397 185.485 169.487C187.601 169.577 189.38 169.345 189.707 168.959C189.422 168.532 187.68 168.152 185.558 168.062C183.437 167.972 181.658 168.194 181.336 168.59Z" fill="#8807F7"/>
<path d="M179.609 167.861C179.609 168.537 181.721 169.181 184.402 169.291C187.083 169.402 189.268 168.948 189.3 168.273C189.332 167.597 187.189 166.953 184.507 166.837C181.826 166.721 179.641 167.17 179.609 167.861Z" fill="#8807F7"/>
<path d="M179.662 166.626L179.609 167.854L189.297 168.266L189.349 167.037L179.662 166.626Z" fill="#8807F7"/>
<path d="M179.656 166.642C179.63 167.323 181.768 167.962 184.449 168.078C187.13 168.194 189.315 167.735 189.342 167.054C189.368 166.373 187.231 165.74 184.555 165.624C181.879 165.507 179.688 165.956 179.656 166.642Z" fill="#8807F7"/>
<path opacity="0.4" d="M179.656 166.642C179.63 167.323 181.768 167.962 184.449 168.078C187.13 168.194 189.315 167.735 189.342 167.054C189.368 166.373 187.231 165.74 184.555 165.624C181.879 165.507 179.688 165.956 179.656 166.642Z" fill="white"/>
<path d="M180.266 166.611C180.266 166.655 180.281 166.697 180.308 166.732C180.635 166.336 182.419 166.104 184.53 166.204C186.642 166.304 188.399 166.674 188.679 167.101C188.71 167.071 188.729 167.029 188.732 166.985C188.732 166.526 186.874 166.062 184.541 165.967C182.208 165.872 180.287 166.157 180.266 166.611Z" fill="#8807F7"/>
<path opacity="0.4" d="M180.266 166.611C180.266 166.655 180.281 166.697 180.308 166.732C180.635 166.336 182.419 166.104 184.53 166.204C186.642 166.304 188.399 166.674 188.679 167.101C188.71 167.071 188.729 167.029 188.732 166.985C188.732 166.526 186.874 166.062 184.541 165.967C182.208 165.872 180.287 166.157 180.266 166.611Z" fill="#8807F7"/>
<path opacity="0.4" d="M180.312 166.732C180.603 167.159 182.345 167.539 184.461 167.629C186.578 167.719 188.356 167.487 188.684 167.101C188.404 166.674 186.657 166.294 184.535 166.204C182.413 166.114 180.64 166.336 180.312 166.732Z" fill="#8807F7"/>
<path d="M181.149 166.289C181.117 166.964 183.26 167.608 185.941 167.719C188.623 167.83 190.808 167.376 190.834 166.7C190.861 166.025 188.723 165.381 186.042 165.265C183.36 165.149 181.175 165.587 181.149 166.289Z" fill="#8807F7"/>
<path d="M181.201 165.046L181.148 166.274L190.836 166.685L190.888 165.457L181.201 165.046Z" fill="#8807F7"/>
<path d="M181.196 165.058C181.164 165.739 183.307 166.378 185.983 166.494C188.659 166.61 190.849 166.151 190.881 165.47C190.913 164.789 188.77 164.15 186.088 164.04C183.407 163.929 181.222 164.383 181.196 165.058Z" fill="#8807F7"/>
<path opacity="0.4" d="M181.196 165.058C181.164 165.739 183.307 166.378 185.983 166.494C188.659 166.61 190.849 166.151 190.881 165.47C190.913 164.789 188.77 164.15 186.088 164.04C183.407 163.929 181.222 164.383 181.196 165.058Z" fill="white"/>
<path d="M181.829 165.058C181.827 165.08 181.829 165.103 181.837 165.124C181.844 165.145 181.856 165.164 181.871 165.18C182.193 164.784 183.982 164.546 186.094 164.652C188.205 164.757 189.962 165.127 190.247 165.549C190.277 165.517 190.294 165.476 190.295 165.433C190.295 164.974 188.442 164.515 186.104 164.414C183.766 164.314 181.845 164.578 181.829 165.058Z" fill="#8807F7"/>
<path opacity="0.4" d="M181.829 165.058C181.827 165.08 181.829 165.103 181.837 165.124C181.844 165.145 181.856 165.164 181.871 165.18C182.193 164.784 183.982 164.546 186.094 164.652C188.205 164.757 189.962 165.127 190.247 165.549C190.277 165.517 190.294 165.476 190.295 165.433C190.295 164.974 188.442 164.515 186.104 164.414C183.766 164.314 181.845 164.578 181.829 165.058Z" fill="#8807F7"/>
<path opacity="0.4" d="M181.859 165.159C182.144 165.581 183.891 165.967 186.008 166.056C188.125 166.146 189.898 165.914 190.23 165.528C189.945 165.106 188.198 164.721 186.077 164.631C183.955 164.541 182.181 164.763 181.859 165.159Z" fill="#8807F7"/>
<path d="M174.314 173.704C174.478 174.364 176.721 174.369 179.318 173.704C181.915 173.039 183.883 171.994 183.72 171.334C183.556 170.675 181.318 170.669 178.721 171.334C176.125 171.999 174.151 173.05 174.314 173.704Z" fill="#8807F7"/>
<path d="M183.429 170.157L174.023 172.512L174.322 173.705L183.728 171.349L183.429 170.157Z" fill="#8807F7"/>
<path d="M174.034 172.517C174.197 173.171 176.435 173.182 179.032 172.517C181.629 171.852 183.603 170.807 183.434 170.152C183.265 169.498 181.032 169.487 178.435 170.152C175.839 170.817 173.865 171.857 174.034 172.517Z" fill="#8807F7"/>
<path opacity="0.4" d="M174.034 172.517C174.197 173.171 176.435 173.182 179.032 172.517C181.629 171.852 183.603 170.807 183.434 170.152C183.265 169.498 181.032 169.487 178.435 170.152C175.839 170.817 173.865 171.857 174.034 172.517Z" fill="white"/>
<path d="M174.622 172.322C174.634 172.363 174.66 172.399 174.696 172.422C174.891 171.952 176.522 171.224 178.581 170.707C180.639 170.189 182.418 170.063 182.803 170.39C182.819 170.349 182.819 170.304 182.803 170.263C182.693 169.82 180.761 169.91 178.496 170.48C176.232 171.05 174.511 171.873 174.622 172.322Z" fill="#8807F7"/>
<path opacity="0.4" d="M174.622 172.322C174.634 172.363 174.66 172.399 174.696 172.422C174.891 171.952 176.522 171.224 178.581 170.707C180.639 170.189 182.418 170.063 182.803 170.39C182.819 170.349 182.819 170.304 182.803 170.263C182.693 169.82 180.761 169.91 178.496 170.48C176.232 171.05 174.511 171.873 174.622 172.322Z" fill="#8807F7"/>
<path opacity="0.4" d="M174.703 172.448C175.099 172.775 176.883 172.648 178.926 172.131C180.968 171.614 182.62 170.891 182.81 170.416C182.414 170.089 180.636 170.221 178.588 170.733C176.54 171.245 174.898 171.952 174.703 172.448Z" fill="#8807F7"/>
<path d="M169.828 173.815C169.828 174.491 171.939 175.135 174.621 175.245C177.302 175.356 179.487 174.902 179.513 174.227C179.54 173.551 177.402 172.907 174.726 172.791C172.05 172.675 169.86 173.134 169.828 173.815Z" fill="#8807F7"/>
<path d="M169.872 172.575L169.82 173.803L179.508 174.214L179.56 172.986L169.872 172.575Z" fill="#8807F7"/>
<path d="M169.883 172.585C169.857 173.266 171.994 173.905 174.676 174.021C177.357 174.137 179.542 173.678 179.568 172.997C179.595 172.316 177.457 171.677 174.781 171.566C172.105 171.455 169.915 171.92 169.883 172.585Z" fill="#8807F7"/>
<path opacity="0.4" d="M169.883 172.585C169.857 173.266 171.994 173.905 174.676 174.021C177.357 174.137 179.542 173.678 179.568 172.997C179.595 172.316 177.457 171.677 174.781 171.566C172.105 171.455 169.915 171.92 169.883 172.585Z" fill="white"/>
<path d="M170.516 172.564C170.516 172.608 170.531 172.651 170.558 172.686C170.88 172.29 172.669 172.052 174.78 172.158C176.892 172.263 178.644 172.633 178.929 173.06C178.959 173.027 178.978 172.984 178.982 172.939C178.982 172.48 177.124 172.02 174.791 171.925C172.458 171.83 170.547 172.105 170.516 172.564Z" fill="#8807F7"/>
<path opacity="0.4" d="M170.516 172.564C170.516 172.608 170.531 172.651 170.558 172.686C170.88 172.29 172.669 172.052 174.78 172.158C176.892 172.263 178.644 172.633 178.929 173.06C178.959 173.027 178.978 172.984 178.982 172.939C178.982 172.48 177.124 172.02 174.791 171.925C172.458 171.83 170.547 172.105 170.516 172.564Z" fill="#8807F7"/>
<path opacity="0.4" d="M170.539 172.686C170.829 173.113 172.571 173.493 174.688 173.583C176.804 173.673 178.583 173.441 178.91 173.055C178.625 172.628 176.883 172.248 174.762 172.153C172.64 172.058 170.872 172.29 170.539 172.686Z" fill="#8807F7"/>
<path d="M219.868 173.757C219.836 174.454 222.042 175.114 224.792 175.23C227.542 175.346 229.796 174.876 229.827 174.174C229.859 173.472 227.647 172.823 224.898 172.702C222.148 172.58 219.894 173.061 219.868 173.757Z" fill="#8807F7"/>
<path d="M219.905 172.48L219.852 173.74L229.813 174.163L229.866 172.902L219.905 172.48Z" fill="#8807F7"/>
<path d="M219.922 172.496C219.891 173.192 222.097 173.852 224.847 173.968C227.597 174.084 229.85 173.615 229.882 172.913C229.914 172.211 227.707 171.561 224.952 171.44C222.197 171.319 219.949 171.799 219.922 172.496Z" fill="#8807F7"/>
<path opacity="0.4" d="M219.922 172.496C219.891 173.192 222.097 173.852 224.847 173.968C227.597 174.084 229.85 173.615 229.882 172.913C229.914 172.211 227.707 171.561 224.952 171.44C222.197 171.319 219.949 171.799 219.922 172.496Z" fill="white"/>
<path d="M220.547 172.475C220.548 172.52 220.563 172.564 220.589 172.601C220.922 172.19 222.743 171.952 224.922 172.042C227.102 172.131 228.897 172.527 229.187 172.965C229.22 172.933 229.238 172.89 229.24 172.844C229.24 172.374 227.335 171.899 224.933 171.788C222.531 171.678 220.568 172.005 220.547 172.475Z" fill="#8807F7"/>
<path opacity="0.4" d="M220.547 172.475C220.548 172.52 220.563 172.564 220.589 172.601C220.922 172.19 222.743 171.952 224.922 172.042C227.102 172.131 228.897 172.527 229.187 172.965C229.22 172.933 229.238 172.89 229.24 172.844C229.24 172.374 227.335 171.899 224.933 171.788C222.531 171.678 220.568 172.005 220.547 172.475Z" fill="#8807F7"/>
<path opacity="0.4" d="M220.602 172.601C220.902 173.034 222.713 173.43 224.872 173.525C227.03 173.62 228.872 173.377 229.2 172.965C228.909 172.527 227.115 172.137 224.935 172.042C222.755 171.947 220.934 172.189 220.602 172.601Z" fill="#8807F7"/>
<path d="M218.813 171.847C218.786 172.544 220.993 173.203 223.743 173.325C226.492 173.446 228.746 172.971 228.773 172.269C228.799 171.567 226.598 170.913 223.848 170.791C221.098 170.67 218.844 171.15 218.813 171.847Z" fill="#8807F7"/>
<path d="M218.866 170.582L218.812 171.842L228.774 172.265L228.827 171.005L218.866 170.582Z" fill="#8807F7"/>
<path d="M218.86 170.585C218.828 171.282 221.034 171.941 223.784 172.063C226.534 172.184 228.788 171.709 228.82 171.007C228.851 170.305 226.64 169.651 223.89 169.529C221.14 169.408 218.886 169.888 218.86 170.585Z" fill="#8807F7"/>
<path opacity="0.4" d="M218.86 170.585C218.828 171.282 221.034 171.941 223.784 172.063C226.534 172.184 228.788 171.709 228.82 171.007C228.851 170.305 226.64 169.651 223.89 169.529C221.14 169.408 218.886 169.888 218.86 170.585Z" fill="white"/>
<path d="M219.516 170.564C219.517 170.609 219.531 170.653 219.558 170.69C219.89 170.279 221.711 170.041 223.886 170.131C226.061 170.221 227.866 170.616 228.156 171.055C228.186 171.021 228.205 170.978 228.209 170.933C228.209 170.463 226.298 169.988 223.896 169.878C221.495 169.767 219.537 170.094 219.516 170.564Z" fill="#8807F7"/>
<path opacity="0.4" d="M219.516 170.564C219.517 170.609 219.531 170.653 219.558 170.69C219.89 170.279 221.711 170.041 223.886 170.131C226.061 170.221 227.866 170.616 228.156 171.055C228.186 171.021 228.205 170.978 228.209 170.933C228.209 170.463 226.298 169.988 223.896 169.878C221.495 169.767 219.537 170.094 219.516 170.564Z" fill="#8807F7"/>
<path opacity="0.4" d="M219.555 170.69C219.85 171.123 221.666 171.519 223.819 171.614C225.973 171.709 227.826 171.466 228.153 171.054C227.862 170.616 226.068 170.226 223.883 170.131C221.698 170.036 219.887 170.279 219.555 170.69Z" fill="#8807F7"/>
<path d="M221.071 170.437C221.039 171.128 223.245 171.788 225.995 171.91C228.745 172.031 230.999 171.556 231.03 170.854C231.062 170.152 228.851 169.498 226.101 169.381C223.351 169.265 221.097 169.74 221.071 170.437Z" fill="#8807F7"/>
<path d="M221.116 169.162L221.062 170.422L231.024 170.845L231.077 169.585L221.116 169.162Z" fill="#8807F7"/>
<path d="M221.125 169.171C221.094 169.867 223.3 170.527 226.05 170.649C228.8 170.77 231.054 170.295 231.085 169.593C231.117 168.891 228.905 168.236 226.155 168.12C223.405 168.004 221.152 168.479 221.125 169.171Z" fill="#8807F7"/>
<path opacity="0.4" d="M221.125 169.171C221.094 169.867 223.3 170.527 226.05 170.649C228.8 170.77 231.054 170.295 231.085 169.593C231.117 168.891 228.905 168.236 226.155 168.12C223.405 168.004 221.152 168.479 221.125 169.171Z" fill="white"/>
<path d="M221.719 169.149C221.72 169.195 221.735 169.239 221.761 169.276C222.093 168.864 223.914 168.627 226.089 168.717C228.264 168.806 230.069 169.202 230.359 169.64C230.389 169.606 230.408 169.564 230.412 169.519C230.412 169.049 228.501 168.574 226.1 168.463C223.698 168.352 221.756 168.68 221.719 169.149Z" fill="#8807F7"/>
<path opacity="0.4" d="M221.719 169.149C221.72 169.195 221.735 169.239 221.761 169.276C222.093 168.864 223.914 168.627 226.089 168.717C228.264 168.806 230.069 169.202 230.359 169.64C230.389 169.606 230.408 169.564 230.412 169.519C230.412 169.049 228.501 168.574 226.1 168.463C223.698 168.352 221.756 168.68 221.719 169.149Z" fill="#8807F7"/>
<path opacity="0.4" d="M221.789 169.281C222.085 169.719 223.9 170.11 226.054 170.205C228.207 170.3 230.06 170.057 230.387 169.645C230.097 169.207 228.302 168.816 226.117 168.721C223.932 168.626 222.122 168.864 221.789 169.281Z" fill="#8807F7"/>
<path d="M221.102 168.526C221.07 169.223 223.276 169.883 226.026 169.999C228.776 170.115 231.03 169.645 231.062 168.943C231.093 168.241 228.882 167.587 226.132 167.471C223.382 167.354 221.128 167.829 221.102 168.526Z" fill="#8807F7"/>
<path d="M220.949 166.612L220.898 167.874L230.869 168.273L230.919 167.011L220.949 166.612Z" fill="#8807F7"/>
<path d="M221.149 167.265C221.117 167.962 223.323 168.622 226.073 168.738C228.823 168.854 231.077 168.384 231.109 167.682C231.14 166.98 228.929 166.326 226.179 166.21C223.429 166.094 221.175 166.569 221.149 167.265Z" fill="#8807F7"/>
<path opacity="0.4" d="M221.149 167.265C221.117 167.962 223.323 168.622 226.073 168.738C228.823 168.854 231.077 168.384 231.109 167.682C231.14 166.98 228.929 166.326 226.179 166.21C223.429 166.094 221.175 166.569 221.149 167.265Z" fill="white"/>
<path d="M221.773 167.244C221.775 167.288 221.789 167.33 221.816 167.365C222.148 166.954 223.969 166.716 226.144 166.806C228.318 166.896 230.123 167.297 230.414 167.729C230.446 167.697 230.465 167.654 230.467 167.608C230.467 167.138 228.561 166.663 226.154 166.552C223.747 166.442 221.795 166.769 221.773 167.244Z" fill="#8807F7"/>
<path opacity="0.4" d="M221.773 167.244C221.775 167.288 221.789 167.33 221.816 167.365C222.148 166.954 223.969 166.716 226.144 166.806C228.318 166.896 230.123 167.297 230.414 167.729C230.446 167.697 230.465 167.654 230.467 167.608C230.467 167.138 228.561 166.663 226.154 166.552C223.747 166.442 221.795 166.769 221.773 167.244Z" fill="#8807F7"/>
<path opacity="0.4" d="M221.836 167.365C222.132 167.803 223.947 168.194 226.106 168.289C228.265 168.384 230.107 168.141 230.434 167.73C230.144 167.297 228.349 166.901 226.164 166.806C223.979 166.711 222.168 166.954 221.836 167.365Z" fill="#8807F7"/>
<path d="M219.047 166.964C219.016 167.661 221.222 168.321 223.972 168.437C226.722 168.553 228.975 168.083 229.007 167.381C229.039 166.679 226.832 166.025 224.083 165.909C221.333 165.792 219.1 166.267 219.047 166.964Z" fill="#8807F7"/>
<path d="M219.116 165.715L219.062 166.975L229.024 167.4L229.078 166.139L219.116 165.715Z" fill="#8807F7"/>
<path d="M219.11 165.703C219.078 166.399 221.284 167.059 224.034 167.175C226.784 167.291 229.038 166.822 229.07 166.12C229.101 165.418 226.895 164.763 224.145 164.647C221.395 164.531 219.141 165.006 219.11 165.703Z" fill="#8807F7"/>
<path opacity="0.4" d="M219.11 165.703C219.078 166.399 221.284 167.059 224.034 167.175C226.784 167.291 229.038 166.822 229.07 166.12C229.101 165.418 226.895 164.763 224.145 164.647C221.395 164.531 219.141 165.006 219.11 165.703Z" fill="white"/>
<path d="M219.742 165.681C219.743 165.725 219.758 165.768 219.784 165.803C220.122 165.396 221.943 165.154 224.118 165.249C226.292 165.344 228.092 165.734 228.382 166.167C228.415 166.137 228.434 166.095 228.435 166.051C228.435 165.576 226.53 165.106 224.128 164.995C221.727 164.884 219.763 165.206 219.742 165.681Z" fill="#8807F7"/>
<path opacity="0.4" d="M219.742 165.681C219.743 165.725 219.758 165.768 219.784 165.803C220.122 165.396 221.943 165.154 224.118 165.249C226.292 165.344 228.092 165.734 228.382 166.167C228.415 166.137 228.434 166.095 228.435 166.051C228.435 165.576 226.53 165.106 224.128 164.995C221.727 164.884 219.763 165.206 219.742 165.681Z" fill="#8807F7"/>
<path opacity="0.4" d="M219.758 165.803C220.059 166.241 221.869 166.637 224.028 166.727C226.187 166.817 228.029 166.579 228.356 166.168C228.066 165.735 226.271 165.339 224.091 165.249C221.911 165.159 220.096 165.397 219.758 165.803Z" fill="#8807F7"/>
<path d="M231.891 170.764C231.601 171.382 233.332 172.802 235.755 173.931C238.177 175.061 240.378 175.514 240.663 174.881C240.948 174.248 239.222 172.849 236.8 171.714C234.377 170.579 232.176 170.152 231.891 170.764Z" fill="#8807F7"/>
<path d="M232.429 169.672L231.906 170.785L240.682 174.908L241.205 173.795L232.429 169.672Z" fill="#8807F7"/>
<path d="M232.422 169.656C232.132 170.268 233.863 171.688 236.286 172.823C238.709 173.958 240.91 174.406 241.195 173.773C241.48 173.14 239.754 171.736 237.331 170.606C234.908 169.477 232.707 169.039 232.422 169.656Z" fill="#8807F7"/>
<path opacity="0.4" d="M232.422 169.656C232.132 170.268 233.863 171.688 236.286 172.823C238.709 173.958 240.91 174.406 241.195 173.773C241.48 173.14 239.754 171.736 237.331 170.606C234.908 169.477 232.707 169.039 232.422 169.656Z" fill="white"/>
<path d="M232.988 169.872C232.973 169.913 232.973 169.958 232.988 169.999C233.437 169.762 235.163 170.226 237.079 171.129C238.995 172.031 240.462 173.06 240.563 173.562C240.602 173.544 240.634 173.512 240.652 173.472C240.848 173.055 239.296 171.889 237.179 170.912C235.063 169.936 233.184 169.461 232.988 169.872Z" fill="#8807F7"/>
<path opacity="0.4" d="M232.988 169.872C232.973 169.913 232.973 169.958 232.988 169.999C233.437 169.762 235.163 170.226 237.079 171.129C238.995 172.031 240.462 173.06 240.563 173.562C240.602 173.544 240.634 173.512 240.652 173.472C240.848 173.055 239.296 171.889 237.179 170.912C235.063 169.936 233.184 169.461 232.988 169.872Z" fill="#8807F7"/>
<path opacity="0.4" d="M232.977 169.999C233.077 170.527 234.56 171.53 236.455 172.432C238.35 173.335 240.102 173.805 240.551 173.562C240.45 173.06 238.967 172.031 237.067 171.129C235.167 170.226 233.425 169.762 232.977 169.999Z" fill="#8807F7"/>
<path d="M226.813 172.945C226.786 173.62 228.924 174.259 231.605 174.375C234.287 174.491 236.472 174.032 236.503 173.356C236.535 172.681 234.392 172.037 231.711 171.921C229.03 171.805 226.844 172.264 226.813 172.945Z" fill="#8807F7"/>
<path d="M226.849 171.697L226.797 172.926L236.484 173.337L236.536 172.108L226.849 171.697Z" fill="#8807F7"/>
<path d="M226.852 171.715C226.852 172.39 228.963 173.034 231.644 173.15C234.325 173.266 236.511 172.802 236.537 172.126C236.563 171.451 234.426 170.807 231.75 170.696C229.074 170.585 226.883 171.039 226.852 171.715Z" fill="#8807F7"/>
<path opacity="0.4" d="M226.852 171.715C226.852 172.39 228.963 173.034 231.644 173.15C234.325 173.266 236.511 172.802 236.537 172.126C236.563 171.451 234.426 170.807 231.75 170.696C229.074 170.585 226.883 171.039 226.852 171.715Z" fill="white"/>
<path d="M227.477 171.693C227.477 171.737 227.492 171.78 227.519 171.815C227.846 171.414 229.63 171.181 231.741 171.287C233.853 171.393 235.61 171.762 235.89 172.184C235.922 172.154 235.941 172.112 235.943 172.068C235.943 171.609 234.085 171.15 231.752 171.05C229.419 170.949 227.498 171.234 227.477 171.693Z" fill="#8807F7"/>
<path opacity="0.4" d="M227.477 171.693C227.477 171.737 227.492 171.78 227.519 171.815C227.846 171.414 229.63 171.181 231.741 171.287C233.853 171.393 235.61 171.762 235.89 172.184C235.922 172.154 235.941 172.112 235.943 172.068C235.943 171.609 234.085 171.15 231.752 171.05C229.419 170.949 227.498 171.234 227.477 171.693Z" fill="#8807F7"/>
<path opacity="0.4" d="M227.555 171.814C227.845 172.237 229.587 172.622 231.703 172.712C233.82 172.801 235.599 172.569 235.926 172.184C235.646 171.762 233.899 171.376 231.777 171.286C229.655 171.197 227.861 171.392 227.555 171.814Z" fill="#8807F7"/>
<path d="M157.527 147.568C157.529 148.02 157.529 148.471 157.53 148.923C157.531 149.312 157.403 149.691 157.043 149.89C156.62 150.121 156.021 150.062 155.55 150.014C155.532 150.013 155.516 150.01 155.499 150.009C155.515 149.684 155.509 149.356 155.493 149.032C155.473 148.593 155.74 148.069 156.211 147.995C156.723 147.915 157.168 147.86 157.409 147.577C157.418 147.569 157.425 147.561 157.432 147.551C157.467 147.503 157.505 147.456 157.543 147.41C157.531 147.461 157.527 147.515 157.527 147.568Z" fill="#B86AFA"/>
<path d="M155.984 152.954C156.337 152.977 156.692 152.971 157.045 152.977C157.457 152.984 157.878 153.035 158.275 152.963C158.846 152.859 159.487 152.487 159.699 151.936C159.895 151.425 159.803 150.816 159.464 150.388C159.441 150.358 159.416 150.33 159.389 150.301C159.047 149.927 158.516 149.732 158.013 149.799C157.385 149.882 156.833 150.375 156.67 150.986C156.569 151.367 156.657 151.773 156.598 152.161C156.549 152.482 156.275 152.812 155.984 152.954Z" fill="#B86AFA"/>
<path d="M159.501 146.112C159.469 146.208 159.507 146.311 159.548 146.403C160.071 147.57 161.473 148.359 161.425 149.76C161.403 150.394 161.087 151.138 160.558 151.514C160.519 151.541 160.484 151.566 160.439 151.578C160.338 151.389 160.328 151.113 160.242 150.905C160.134 150.644 159.992 150.387 159.793 150.184C159.603 149.991 159.364 149.879 159.174 149.689C158.774 149.29 158.522 148.742 158.488 148.178C158.44 147.372 158.843 146.573 159.501 146.112Z" fill="#B86AFA"/>
<path d="M155.844 148.925C155.844 148.925 155.825 148.573 156.186 148.591C156.187 148.591 156.318 148.976 155.844 148.925Z" fill="#8807F7" stroke="#B86AFA" stroke-width="0.117933" stroke-miterlimit="10"/>
<path d="M155.745 151.902C156.075 151.902 156.342 151.635 156.342 151.305C156.342 150.976 156.075 150.708 155.745 150.708C155.416 150.708 155.148 150.976 155.148 151.305C155.148 151.635 155.416 151.902 155.745 151.902Z" fill="#B86AFA"/>
<path d="M208.168 128.013C208.169 128.465 208.169 128.917 208.17 129.368C208.172 129.757 208.044 130.137 207.683 130.335C207.261 130.566 206.662 130.508 206.191 130.459C206.173 130.458 206.156 130.456 206.14 130.455C206.155 130.129 206.149 129.801 206.134 129.477C206.114 129.038 206.38 128.515 206.851 128.441C207.363 128.36 207.808 128.305 208.05 128.023C208.058 128.015 208.065 128.006 208.072 127.997C208.108 127.949 208.146 127.902 208.184 127.855C208.172 127.906 208.168 127.96 208.168 128.013Z" fill="#B86AFA"/>
<path d="M206.625 133.399C206.977 133.422 207.332 133.417 207.685 133.423C208.097 133.43 208.518 133.481 208.916 133.408C209.486 133.305 210.128 132.932 210.339 132.381C210.536 131.871 210.443 131.262 210.105 130.833C210.081 130.803 210.056 130.775 210.029 130.747C209.687 130.373 209.157 130.177 208.653 130.245C208.026 130.328 207.474 130.821 207.311 131.431C207.209 131.812 207.298 132.218 207.239 132.606C207.19 132.928 206.916 133.257 206.625 133.399Z" fill="#B86AFA"/>
<path d="M210.141 126.558C210.11 126.653 210.148 126.757 210.189 126.849C210.711 128.015 212.114 128.805 212.066 130.206C212.044 130.839 211.727 131.584 211.199 131.96C211.16 131.987 211.125 132.011 211.08 132.024C210.979 131.835 210.968 131.558 210.882 131.35C210.775 131.089 210.633 130.832 210.434 130.63C210.243 130.436 210.005 130.325 209.814 130.135C209.414 129.736 209.162 129.188 209.129 128.623C209.08 127.817 209.483 127.018 210.141 126.558Z" fill="#B86AFA"/>
<path d="M206.485 129.371C206.485 129.371 206.466 129.019 206.827 129.037C206.827 129.037 206.959 129.422 206.485 129.371Z" fill="#8807F7" stroke="#B86AFA" stroke-width="0.117933" stroke-miterlimit="10"/>
<path d="M206.386 132.348C206.716 132.348 206.983 132.08 206.983 131.751C206.983 131.421 206.716 131.154 206.386 131.154C206.056 131.154 205.789 131.421 205.789 131.751C205.789 132.08 206.056 132.348 206.386 132.348Z" fill="#B86AFA"/>
<path d="M270.301 164.981C270.302 165.432 270.302 165.884 270.303 166.336C270.304 166.725 270.177 167.104 269.816 167.303C269.393 167.534 268.795 167.475 268.324 167.427C268.306 167.426 268.289 167.423 268.273 167.422C268.288 167.097 268.282 166.769 268.267 166.445C268.247 166.006 268.513 165.482 268.984 165.408C269.496 165.327 269.941 165.273 270.183 164.99C270.191 164.982 270.198 164.974 270.205 164.964C270.241 164.916 270.279 164.869 270.317 164.823C270.305 164.874 270.301 164.928 270.301 164.981Z" fill="#B86AFA"/>
<path d="M268.758 170.367C269.11 170.389 269.465 170.384 269.818 170.39C270.23 170.397 270.651 170.448 271.049 170.376C271.619 170.272 272.26 169.9 272.472 169.349C272.669 168.838 272.576 168.229 272.238 167.801C272.214 167.771 272.189 167.742 272.162 167.714C271.82 167.34 271.29 167.145 270.786 167.212C270.159 167.295 269.606 167.788 269.444 168.399C269.342 168.78 269.431 169.185 269.371 169.573C269.323 169.895 269.049 170.224 268.758 170.367Z" fill="#B86AFA"/>
<path d="M272.274 163.525C272.243 163.621 272.281 163.724 272.322 163.816C272.844 164.983 274.246 165.772 274.198 167.173C274.176 167.807 273.86 168.551 273.331 168.927C273.293 168.954 273.258 168.979 273.213 168.991C273.112 168.802 273.101 168.526 273.015 168.318C272.908 168.057 272.765 167.8 272.567 167.597C272.376 167.404 272.138 167.292 271.947 167.102C271.547 166.703 271.295 166.155 271.262 165.591C271.213 164.785 271.616 163.985 272.274 163.525Z" fill="#B86AFA"/>
<path d="M268.617 166.338C268.617 166.338 268.599 165.986 268.96 166.004C268.96 166.004 269.091 166.389 268.617 166.338Z" fill="#8807F7" stroke="#B86AFA" stroke-width="0.117933" stroke-miterlimit="10"/>
<path d="M268.519 169.315C268.848 169.315 269.116 169.048 269.116 168.718C269.116 168.389 268.848 168.121 268.519 168.121C268.189 168.121 267.922 168.389 267.922 168.718C267.922 169.048 268.189 169.315 268.519 169.315Z" fill="#B86AFA"/>
<defs>
<filter id="filter0_b_7371_104901" x="-237.811" y="-238.209" width="776.864" height="672.463" filterUnits="userSpaceOnUse" color-interpolation-filters="sRGB">
<feFlood flood-opacity="0" result="BackgroundImageFix"/>
<feGaussianBlur in="BackgroundImageFix" stdDeviation="119.128"/>
<feComposite in2="SourceAlpha" operator="in" result="effect1_backgroundBlur_7371_104901"/>
<feBlend mode="normal" in="SourceGraphic" in2="effect1_backgroundBlur_7371_104901" result="shape"/>
</filter>
</defs>
</svg>
